<svg width="668" height="393" viewBox="0 0 668 393" fill="none" xmlns="http://www.w3.org/2000/svg">
<g opacity="0.4">
<path d="M443.868 227.327C449.633 212.537 456.846 198.354 465.401 184.983C482.566 158.165 504.73 134.899 530.685 116.455C543.998 106.908 558.303 98.826 573.351 92.3502C589.632 85.4702 607.901 81.0109 625.477 85.1589C639.739 88.5336 652.806 97.3118 658.622 111.132C664.989 126.338 665.512 144.467 661.153 160.255C657.28 173.681 649.71 185.748 639.308 195.077C628.946 204.357 616.795 211.419 603.602 215.827C590.284 220.442 576.242 222.612 562.152 222.235C558.804 222.135 555.456 221.877 552.108 221.462C550.1 221.221 550.1 224.374 552.108 224.615C566.474 226.29 581.026 225.286 595.025 221.653C609.006 218.194 622.183 212.054 633.824 203.574C645.032 195.258 654.524 184.491 660.279 171.705C667.45 155.746 668.776 137.306 664.778 120.332C663.212 113.673 660.761 107.014 656.743 101.44C652.084 95.1152 645.946 90.0287 638.866 86.6253C622.956 78.8213 604.848 79.1126 588.065 83.793C578.87 86.4844 569.948 90.0354 561.419 94.3991C554.134 98.0097 547.037 101.989 540.156 106.321C526.332 115.031 513.4 125.083 501.549 136.331C489.736 147.532 479.04 159.853 469.61 173.121C460.167 186.369 452.072 200.528 445.445 215.385C443.817 219.055 442.281 222.757 440.834 226.494C440.091 228.382 443.145 229.205 443.848 227.327H443.868Z" fill="#659FEB"/>
<path d="M454.895 227.839C484.212 179.348 524.939 134.714 578.492 116.193C588.747 112.648 599.584 110.087 610.401 111.172C621.218 112.256 631.985 117.489 637.74 126.689C643.374 135.728 643.495 147.248 640.873 157.543C636.233 175.712 623.799 191.169 608.794 202.448C593.789 213.728 576.343 221.21 558.756 227.678" fill="#659FEB"/>
<path d="M456.261 228.681C468.494 208.464 482.465 189.22 498.706 172.005C514.635 155.122 532.784 140.217 553.233 129.129C563.797 123.293 574.991 118.677 586.598 115.369C598.932 111.964 612.581 110.869 624.322 116.875C629.482 119.398 633.814 123.342 636.806 128.245C639.806 133.683 641.235 139.848 640.934 146.052C640.643 158.014 635.762 169.635 629.083 179.407C614.499 200.73 591.057 213.395 567.605 222.685C564.532 223.897 561.442 225.076 558.335 226.221C556.447 226.914 557.27 229.957 559.179 229.234C584.077 220.044 609.397 208.544 626.753 187.663C634.536 178.282 640.623 167.194 643.033 155.162C645.494 142.929 643.847 129.39 634.567 120.3C625.527 111.442 612.36 108.519 600.077 109.614C586.889 110.799 574.043 115.64 562.091 121.144C540.287 131.187 520.742 145.66 503.657 162.413C486.302 179.488 471.347 198.862 458.32 219.351C456.693 221.902 455.099 224.473 453.539 227.064C452.485 228.802 455.207 230.389 456.261 228.651V228.681Z" fill="#659FEB"/>
<path d="M406.041 314.365C409.848 335.135 419.269 354.831 435.64 368.601C449.6 380.322 467.046 386.96 484.854 389.963C493.439 391.379 502.125 392.094 510.827 392.103C523.351 392.103 536.157 390.425 547.185 384.068C569.793 371.122 573.369 343.421 583.653 321.797C593.637 300.846 606.915 279.041 628.95 269.168C631.655 267.96 634.444 266.953 637.297 266.155C637.649 266.006 637.934 265.733 638.1 265.389C638.266 265.045 638.302 264.652 638.2 264.283C638.098 263.915 637.866 263.596 637.546 263.386C637.227 263.176 636.842 263.089 636.463 263.142C625.252 266.43 615.076 272.549 606.915 280.909C598.508 289.296 591.849 299.359 586.285 309.765C583.443 315.048 580.751 320.441 578.421 325.975C576.091 331.509 574.062 337.284 571.973 342.979C567.955 354.027 563.426 365.567 555.009 374.115C545.799 383.505 532.802 387.643 519.946 388.628C510.846 389.226 501.709 388.963 492.658 387.844C475.262 385.836 457.897 380.623 443.444 370.549C426.831 358.979 416.034 341.422 410.993 322.028C410.259 319.206 409.647 316.363 409.124 313.501C408.753 311.492 405.72 312.346 406.111 314.335L406.041 314.365Z" fill="#659FEB"/>
<path d="M421.872 228.791C421.872 229.092 421.801 229.388 421.665 229.656C421.529 229.924 421.331 230.156 421.088 230.333C420.845 230.511 420.564 230.628 420.268 230.676C419.971 230.724 419.667 230.701 419.381 230.609C408.493 197.857 410.13 162.503 408.483 128.023C406.836 93.5431 400.86 57.1247 378.232 31.0714C368.62 20.0233 355.473 10.984 340.829 10.291C326.185 9.59798 310.628 19.2198 308.117 33.6727C307.173 39.2067 308.117 44.8613 308.539 50.4557C309.283 60.605 308.226 70.806 305.415 80.5867C304.491 83.7806 303.296 87.0548 300.855 89.3046C294.337 95.3308 283.63 90.8413 275.153 93.4527C269.378 95.2304 265.11 100.252 262.428 105.666C257.296 116.001 256.844 128.274 259.686 139.463C262.529 150.651 268.454 160.856 275.505 169.996C296.335 196.749 326.418 214.744 359.842 220.445" fill="#659FEB"/>
<path d="M420.293 228.792C420.293 229.093 420.042 229.153 419.801 229.083L420.906 230.188C414.216 209.98 412.258 188.687 411.374 167.525C410.54 147.337 410.681 127.069 408.421 106.962C406.413 88.8833 402.576 70.8046 394.872 54.1623C387.41 38.0924 375.789 22.4443 359.77 14.088C352.066 10.0705 343.248 7.83078 334.56 9.06615C326.703 10.1007 319.417 13.7313 313.86 19.381C311.177 22.1479 309.092 25.4366 307.733 29.043C306.046 33.5928 305.966 38.4941 306.327 43.285C306.893 48.6798 307.168 54.1012 307.151 59.5256C306.974 64.9364 306.278 70.3178 305.072 75.5955C304.067 79.9645 303.063 85.3981 299.467 88.4614C296.454 91.0527 292.146 91.1532 288.369 91.1029C284.231 91.0427 280.023 90.7012 275.955 91.6352C271.799 92.6908 268.089 95.0489 265.369 98.3645C259.232 105.536 256.591 115.368 256.38 124.659C256.159 134.572 258.801 144.294 263.069 153.193C267.344 161.794 272.749 169.786 279.139 176.956C285.037 183.73 291.594 189.901 298.714 195.376C312.969 206.377 329.237 214.483 346.602 219.24C350.814 220.385 355.066 221.319 359.358 222.042C361.367 222.374 362.2 219.341 360.202 219.029C342.587 216.031 325.748 209.543 310.676 199.946C295.303 190.266 282.127 177.474 271.998 162.393C261.382 146.323 254.733 125.181 263.601 106.821C265.321 102.923 268.02 99.5355 271.436 96.9885C274.961 94.568 278.948 94.0658 283.136 94.0859C287.325 94.106 291.463 94.5278 295.53 93.644C297.568 93.2171 299.48 92.3275 301.118 91.044C302.757 89.7605 304.079 88.1175 304.981 86.2418C307.151 81.8527 308.175 76.7505 308.999 71.9496C309.911 66.7367 310.358 61.453 310.335 56.161C310.264 46.5994 307.191 36.2644 311.912 27.3256C315.477 20.5662 322.106 15.7452 329.297 13.4452C337.332 10.8539 345.849 11.6876 353.673 14.7509C370.456 21.3395 382.709 36.847 390.594 52.5452C398.709 68.7055 402.797 86.6937 404.976 104.541C407.387 124.348 407.347 144.334 408.09 164.241C408.863 185.202 410.45 206.374 416.446 226.572C416.798 227.767 417.169 228.962 417.561 230.148C417.953 231.333 418.304 232.156 419.66 232.277C420.14 232.311 420.621 232.247 421.075 232.088C421.528 231.93 421.945 231.68 422.299 231.355C422.652 231.029 422.936 230.635 423.131 230.196C423.327 229.757 423.431 229.282 423.437 228.802C423.487 226.793 420.333 226.793 420.283 228.802L420.293 228.792Z" fill="#659FEB"/>
<path d="M295.288 75.0629C272.459 73.2149 251.789 91.1328 246.506 112.646C243.756 124.658 244.609 137.214 248.957 148.743C253.243 160.129 260.197 170.32 269.235 178.463C279.279 187.713 291.331 194.533 304.077 199.444C305.975 200.177 306.788 197.124 304.91 196.431C283.598 188.225 263.55 173.702 253.858 152.449C249.037 141.873 246.828 129.781 248.605 118.241C250.182 107.416 255.408 97.4554 263.42 90.0079C272.007 81.973 283.507 77.2625 295.339 78.2066C297.347 78.3773 297.347 75.1935 295.339 75.0629H295.288Z" fill="#659FEB"/>
<path d="M353.253 205.882C334.491 201.051 303.235 211.446 283.861 212.059C264.487 212.672 244.57 219.029 231.282 233.151C225.337 239.468 220.817 249.09 225.126 256.613C226.837 259.328 229.23 261.548 232.066 263.051C246.92 271.709 265.672 268.173 282.465 271.839C289.496 273.376 297.028 277.082 298.917 284.012C301.297 292.74 293.483 302.03 296.355 310.608C297.983 315.489 302.884 318.753 307.956 319.647C313.028 320.541 318.251 319.547 323.192 318.1C334.702 314.736 345.7 308.991 353.986 300.313C362.272 291.635 367.615 279.874 367.224 267.892C366.922 258.792 398.259 211.175 394.342 202.939" fill="#659FEB"/>
<path d="M353.674 204.356C346.694 202.599 339.322 202.84 332.211 203.523C324.045 204.316 315.95 205.792 307.875 207.239C300.573 208.534 293.231 209.94 285.779 210.392C281.761 210.633 277.684 210.794 273.646 211.337C269.466 211.895 265.332 212.747 261.272 213.888C253.086 216.13 245.361 219.803 238.453 224.735C231.754 229.626 225.396 235.923 222.795 243.999C221.454 247.783 221.49 251.919 222.895 255.679C224.512 259.606 227.787 262.429 231.402 264.508C239.096 268.927 247.984 270.243 256.702 270.896C265.42 271.548 274.45 271.458 283.027 273.587C289.957 275.315 297.771 279.503 297.751 287.648C297.751 295.543 292.116 303.055 294.738 311.04C297.53 319.407 307.071 322.349 315.066 321.455C319.779 320.833 324.401 319.653 328.836 317.94C333.003 316.444 337.035 314.596 340.888 312.416C348.525 308.161 355.121 302.264 360.202 295.151C365.28 288.001 368.232 279.561 368.719 270.805C368.719 269.59 368.649 268.365 368.719 267.149C368.719 267.631 368.78 266.848 368.82 266.677C368.89 266.326 368.981 265.984 369.071 265.673C369.552 264.076 370.129 262.51 370.799 260.982C375.047 251.099 380.451 241.709 385.352 232.137C387.853 227.276 390.313 222.375 392.463 217.343C394.01 213.717 395.657 209.89 396.078 205.933C396.258 204.677 396.091 203.395 395.596 202.227C394.753 200.379 392.031 201.986 392.875 203.824C392.644 203.322 392.875 203.964 392.935 204.135C392.995 204.306 392.985 204.406 392.935 204.135C392.935 204.286 392.935 204.437 392.935 204.587C392.95 204.872 392.95 205.157 392.935 205.441C392.935 205.581 392.935 205.722 392.935 205.863C392.935 206.194 392.935 205.752 392.935 206.164C392.629 207.832 392.185 209.471 391.609 211.065C389.996 215.454 388.125 219.744 386.005 223.911C381.164 233.814 375.77 243.446 370.939 253.349C369.071 256.902 367.486 260.596 366.199 264.397C365.8 265.603 365.593 266.864 365.586 268.134C365.656 272.339 365.074 276.531 363.858 280.558C358.837 297.21 344.434 308.76 328.595 314.706C320.771 317.629 310.727 320.873 302.933 316.213C301.367 315.343 300.034 314.108 299.046 312.613C298.058 311.118 297.445 309.407 297.259 307.625C296.957 303.758 298.263 300.002 299.318 296.346C300.372 292.69 301.276 288.773 300.633 284.886C299.978 281.402 298.093 278.268 295.32 276.058C289.194 271.036 280.968 269.69 273.305 268.927C264.687 268.063 255.949 268.214 247.402 266.727C243.3 266.082 239.303 264.886 235.52 263.172C231.844 261.424 228.068 259.094 226.149 255.358C222.453 248.197 227.445 239.519 232.326 234.266C238.008 228.345 244.827 223.631 252.374 220.406C259.909 217.15 267.894 215.054 276.056 214.189C279.813 213.767 283.579 213.737 287.346 213.436C290.861 213.144 294.376 212.662 297.851 212.12C312.917 209.78 328.153 205.752 343.53 206.214C346.657 206.271 349.769 206.669 352.81 207.399C354.819 207.892 355.612 204.858 353.644 204.386L353.674 204.356Z" fill="#659FEB"/>
<path d="M293.643 272.1C294.226 277.062 292.247 282.224 290.63 286.804C288.561 292.519 286.14 298.113 284.383 303.928C283.007 308.498 281.611 313.972 283.298 318.683C285.538 324.9 291.092 329.62 296.927 332.352C310.275 338.599 326.175 336.811 339.372 331.127C353.493 325.04 365.134 314.163 373.099 301.096C381.555 287.206 385.995 271.216 387.813 255.156C388.034 253.188 388.218 251.219 388.365 249.251C388.516 247.242 385.352 247.242 385.211 249.251C384.066 264.678 380.581 280.185 373.46 294.005C366.62 307.253 356.386 318.572 343.259 325.733C331.136 332.332 316.141 335.456 302.692 331.227C296.606 329.319 290.74 325.723 287.456 320.099C286.306 318.227 285.707 316.069 285.729 313.872C285.801 311.467 286.179 309.081 286.854 306.771C288.515 301.196 290.456 295.709 292.669 290.329C294.517 285.428 296.475 280.346 296.877 275.083C296.975 274.081 296.975 273.072 296.877 272.07C296.636 270.061 293.482 270.061 293.723 272.07L293.643 272.1Z" fill="#659FEB"/>
<path d="M388.717 213.999C394.221 227.829 421.7 318.915 429.243 331.741C434.084 339.967 439.417 348.072 446.518 354.45C454.352 361.48 463.994 366.12 473.636 370.238C487.356 376.064 503.596 380.905 516.603 373.633C527.822 367.366 533.004 353.475 532.522 340.63C532.04 327.784 514.644 222.335 509.592 210.514" fill="#659FEB"/>
<path d="M387.191 214.42C390.446 222.615 392.946 231.153 395.668 239.529C400.017 252.967 404.316 266.416 408.725 279.834C412.843 292.389 416.971 304.943 421.531 317.347C423.047 321.445 424.544 325.553 426.392 329.53C427.241 331.341 428.193 333.102 429.244 334.803C432.082 339.607 435.264 344.199 438.766 348.543C446.017 357.371 455.398 363.538 465.663 368.369C475.475 372.989 485.82 377.338 496.678 378.574C506.721 379.719 517.056 377.258 524.177 369.725C530.595 362.926 533.729 353.464 534.14 344.244C534.208 340.73 533.983 337.216 533.468 333.739C532.905 329.139 532.252 324.549 531.579 319.959C529.681 307.033 527.562 294.136 525.423 281.25C523.133 267.661 520.742 254.132 518.141 240.574C516.363 231.343 514.726 221.973 512.115 212.943C511.804 211.844 511.429 210.764 510.99 209.709C510.776 209.353 510.432 209.094 510.03 208.989C509.628 208.884 509.201 208.941 508.84 209.147C508.485 209.364 508.228 209.71 508.121 210.112C508.015 210.514 508.067 210.942 508.268 211.306C508.027 210.724 508.268 211.387 508.358 211.547C508.449 211.708 508.539 212.049 508.619 212.311C508.82 212.893 509.001 213.496 509.172 214.098C509.634 215.705 510.036 217.322 510.427 218.949C511.522 223.529 512.486 228.139 513.44 232.749C516.022 245.475 518.322 258.25 520.541 271.036C522.858 284.374 525.054 297.735 527.13 311.12C528.526 320.16 529.952 328.928 530.836 337.917C532.302 352.822 525.905 370.187 510.257 374.596C500.112 377.449 489.165 374.516 479.664 370.92C469.449 367.074 458.974 362.393 450.366 355.574C442.01 348.955 435.753 339.936 430.55 330.726C429.012 327.847 427.696 324.855 426.613 321.777C422.234 310.508 418.437 299.008 414.631 287.528C410.141 273.999 405.772 260.41 401.393 246.841C398.209 236.948 395.096 227.015 391.631 217.202C391.209 215.987 390.767 214.771 390.295 213.576C389.552 211.708 386.498 212.522 387.282 214.41L387.191 214.42Z" fill="#659FEB"/>
<path d="M493.795 178.843C500.554 166.329 507.384 153.634 510.728 139.813C514.073 125.993 513.601 110.687 506.339 98.4435C505.009 95.9165 503.038 93.783 500.624 92.2566C498.133 90.8706 494.819 90.6898 492.589 92.4374C490.761 93.8535 489.978 96.2138 489.285 98.4636L484.133 115.056C483.879 116.215 483.345 117.295 482.576 118.199C480.637 120.128 477.243 119.284 475.174 117.506C473.105 115.729 471.759 113.228 469.68 111.48C464.266 106.86 455.317 108.879 450.597 114.242C445.876 119.606 458.24 210.179 458.501 217.29" fill="#659FEB"/>
<path d="M495.149 179.638C502.019 166.933 509.009 153.987 512.343 139.825C515.357 127.08 515.226 113.149 509.551 101.147C507.02 95.7735 502.752 89.0944 495.952 89.6167C494.496 89.7186 493.095 90.2107 491.895 91.0413C490.695 91.872 489.741 93.0105 489.133 94.3373C487.556 97.5512 486.752 101.237 485.698 104.652L484.081 109.865C483.478 111.803 482.996 113.882 482.233 115.73C481.057 118.613 477.884 117.819 475.975 116.082C473.605 113.932 472.129 111.06 469.397 109.262C467.1 107.818 464.413 107.116 461.703 107.253C459.035 107.384 456.432 108.119 454.09 109.403C452.12 110.364 450.413 111.791 449.119 113.561C448.497 114.866 448.171 116.293 448.164 117.739C447.846 122.977 447.92 128.231 448.385 133.457C449.339 149.387 451.117 165.286 452.905 181.145C454.211 192.715 455.838 204.245 456.852 215.876C456.852 216.318 456.932 216.76 456.953 217.202C457.033 219.21 460.187 219.21 460.106 217.202C459.976 213.907 459.463 210.603 459.102 207.329C458.369 200.921 457.605 194.523 456.872 188.115C455.064 172.397 453.297 156.658 452.071 140.91C451.609 134.884 451.177 128.767 451.167 122.691C451.137 120.738 451.228 118.786 451.439 116.845C451.368 117.347 451.499 116.433 451.549 116.222C451.599 116.012 451.7 115.68 451.76 115.399C451.82 115.118 451.76 115.459 451.76 115.399C451.78 115.318 451.818 115.243 451.87 115.178C452.202 115.027 451.348 115.69 452.001 115.037C452.468 114.543 452.961 114.074 453.477 113.631C457.254 110.538 463.18 109.152 467.539 111.793C470.16 113.38 471.556 116.273 473.766 118.301C475.774 120.119 478.617 121.315 481.319 120.622C484.593 119.748 485.336 116.373 486.25 113.531C487.388 109.895 488.516 106.262 489.635 102.633C490.147 100.996 490.639 99.3491 491.171 97.722C491.553 96.2336 492.33 94.8764 493.421 93.7949C495.701 91.8866 499.096 92.7905 501.195 94.508C503.626 96.5167 505.212 99.4093 506.588 102.171C507.977 105.035 509.045 108.042 509.772 111.14C511.189 117.422 511.529 123.898 510.777 130.294C509.361 144.003 503.575 156.829 497.278 168.922C495.691 171.935 494.044 175.008 492.407 178.041C491.402 179.829 494.164 181.426 495.129 179.638H495.149Z" fill="#659FEB"/>
</g>
<path d="M212.611 109.714C248.437 138.178 309.904 93.293 309.904 93.293L322.519 82.4057C337.826 75.6162 342.868 70.293 342.868 70.293L332.925 74.8629L344.776 65.4921C345.097 65.231 343.711 65.4218 343.35 65.6127L332.302 71.3878L343.721 61.2336C343.783 61.1897 343.824 61.1232 343.836 61.0488C343.849 60.9744 343.831 60.8982 343.787 60.8369C343.743 60.7756 343.676 60.7343 343.602 60.7221C343.528 60.7098 343.451 60.7276 343.39 60.7716L329.711 68.2843C329.711 68.2843 340.447 58.3611 338.75 58.6223C337.052 58.8834 322.921 68.7463 322.921 68.7463C322.921 68.7463 328.756 59.265 326.989 59.7773C325.844 60.1087 321.364 65.8035 318.371 69.821C316.433 72.3821 316.975 73.2559 314.183 74.893L293.855 86.9454C276.78 97.4109 246.519 105.386 223.77 86.5839C223.77 86.5839 215.082 82.014 207.61 91.2039C200.137 100.394 212.611 109.714 212.611 109.714Z" fill="#FFA47A" stroke="#FFA47A" stroke-width="1.48" stroke-linecap="round" stroke-linejoin="round"/>
<path d="M265.099 96.6057C251.449 98.4537 240.632 94.3157 223.779 86.562C223.779 86.562 215.091 81.9921 207.619 91.1821C200.146 100.372 212.64 109.723 212.64 109.723C224.693 119.294 232.667 123.894 247.211 121.373L265.099 96.6057Z" fill="#FF7F4D" stroke="#FF7F4D" stroke-width="0.6" stroke-miterlimit="10"/>
<path d="M265.88 96.5352L258.658 117.999C255.685 118.67 252.662 119.1 249.619 119.284L265.88 96.5352Z" fill="#CF5540"/>
<path d="M315.286 73.1934C315.889 74.1977 316.361 75.7344 315.708 76.1362C315.055 76.5379 313.528 75.634 312.926 74.6698" fill="#CF5540"/>
<path d="M325.22 66.2631C325.22 66.2631 323.613 70.843 323.623 70.7124L330.011 63.1094L325.22 66.2631Z" fill="#CF5540"/>
<path d="M202.885 1.44336C213.541 4.76782 240.137 40.684 240.137 40.684C244.748 44.9293 247.962 50.4729 249.357 56.5832C249.789 58.853 248.262 65.5321 246.454 66.9281L211.04 95.7033C211.04 95.7033 182.526 85.5993 189.396 63.5635C196.266 41.5277 202.152 46.2884 198.707 33.6936C195.262 21.0988 202.885 1.44336 202.885 1.44336Z" fill="#00043B"/>
<path d="M247.801 54.1016C246.014 49.0081 243.921 44.0274 241.533 39.1867C238.765 34.2646 235.586 29.5844 232.032 25.1959C228.053 19.7066 223.501 14.6564 218.453 10.1304C214.496 6.72556 210.418 3.48146 206.401 0.156999C205.768 -0.365273 204.854 0.538658 205.497 1.07097C211.412 5.94216 217.74 10.5522 223.003 16.1365C225.445 18.8076 227.751 21.6 229.913 24.5029C233.331 28.7027 236.471 33.1212 239.314 37.7304C242.327 43.0234 244.456 48.7784 246.605 54.4431C246.897 55.2164 248.132 54.885 247.841 54.1016H247.801Z" fill="#00043B"/>
<path d="M224.5 58.1284C224.456 58.1812 224.4 58.2236 224.338 58.2527C224.275 58.2819 224.207 58.297 224.138 58.297C224.069 58.297 224.001 58.2819 223.939 58.2527C223.876 58.2236 223.821 58.1812 223.777 58.1284C222.973 57.1943 220.834 55.2258 218.203 57.2646C215.571 59.3035 218.413 62.9493 219.207 64.6467C220.342 67.1275 221.216 74.6904 218.554 80.8673C216.656 85.3367 208.982 93.2712 208.982 93.2712C208.982 93.2712 219.488 105.032 227.182 99.89C227.182 99.89 227.945 83.328 230.486 80.0537C230.536 79.9834 237.075 83.9105 244.487 72.8022C251.467 62.3367 244.557 55.7982 242.88 54.4524C241.454 53.3175 234.975 47.1707 224.5 58.1284Z" fill="#FFA47A"/>
<path d="M227.724 93.1816C227.463 93.1816 216.938 98.3541 216.938 98.3541C216.938 98.3541 221.789 103.296 227.162 99.8908L227.724 93.1816Z" fill="#CF5540"/>
<path d="M242.068 75.4154L236.183 72.1211C236.183 72.1211 236.072 75.777 237.941 76.4298C239.809 77.0827 242.068 75.4154 242.068 75.4154Z" fill="white"/>
<path d="M222.804 59.6359C222.021 58.8425 220.524 58.4608 219.731 59.2442C219.374 59.7167 219.198 60.3006 219.233 60.8913C219.268 61.4821 219.512 62.0411 219.922 62.4682" fill="#CF5540"/>
<path d="M241.808 70.3223L239.799 73.1244L241.426 73.8376C241.493 73.87 241.568 73.8839 241.643 73.8779C241.718 73.8718 241.789 73.8459 241.851 73.803C241.912 73.76 241.961 73.7015 241.992 73.6335C242.023 73.5654 242.036 73.4903 242.029 73.4157L241.808 70.3223Z" fill="#CF5540"/>
<path d="M247.601 59.5349C247.601 59.5349 230.527 63.1506 223.778 58.1288C217.028 53.1069 234.474 39.9698 241.003 47.7637C247.531 55.5576 247.601 59.5349 247.601 59.5349Z" fill="#00043B"/>
<path d="M230.515 80.0355C227.954 78.6906 225.874 76.5853 224.559 74.0093C223.364 71.5988 223.374 83.2695 228.627 86.0115C228.627 86.0617 229.561 82.8577 230.515 80.0355Z" fill="#CF5540"/>
<path d="M239.545 63.7436C238.802 63.834 240.549 62.5886 241.383 62.7392C241.765 62.8034 242.107 63.0152 242.334 63.329C242.562 63.6428 242.656 64.0334 242.598 64.4165C241.69 63.8434 240.61 63.6054 239.545 63.7436Z" fill="#00043B"/>
<path d="M247.35 66.1738C247.066 65.8971 246.686 65.7422 246.29 65.7422C245.894 65.7422 245.514 65.8971 245.23 66.1738C245.931 66.4398 246.556 66.8744 247.048 67.4393" fill="#00043B"/>
<path d="M239.465 68.5047C239.204 69.0571 239.204 69.5995 239.465 69.72C239.727 69.8405 240.158 69.5091 240.47 68.9667C240.781 68.4244 240.731 67.882 240.47 67.7514C240.209 67.6209 239.727 67.9824 239.465 68.5047Z" fill="#00043B"/>
<path d="M243.212 70.3222C242.961 70.8445 242.961 71.3266 243.212 71.4873C243.463 71.648 243.865 71.2864 244.116 70.7641C244.367 70.2419 244.367 69.7598 244.116 69.5991C243.865 69.4384 243.463 69.7999 243.212 70.3222Z" fill="#00043B"/>
<path opacity="0.37" d="M228.951 68.8165C228.755 69.4365 228.748 70.1006 228.931 70.7246C229.113 71.3486 229.476 71.9044 229.975 72.3217C230.473 72.7389 231.085 72.9989 231.731 73.0686C232.377 73.1383 233.03 73.0147 233.606 72.7133C234.182 72.4119 234.655 71.9464 234.967 71.3756C235.278 70.8049 235.413 70.1546 235.354 69.5072C235.295 68.8598 235.046 68.2443 234.637 67.7387C234.229 67.2331 233.679 66.8602 233.058 66.6672C232.229 66.4119 231.332 66.4944 230.562 66.8969C229.793 67.2994 229.214 67.9892 228.951 68.8165Z" fill="#E8632E" stroke="#E8632E" stroke-width="0.32" stroke-miterlimit="10"/>
<path d="M221.238 54.4415C223.196 56.6109 224.873 59.0716 227.204 60.8895C229.258 62.5159 231.853 63.302 234.465 63.0891C239.607 62.7576 245.282 61.231 249.119 57.6454C249.611 57.1834 248.868 56.4402 248.376 56.9022C244.76 60.2869 239.336 61.7231 234.465 62.0445C233.14 62.1451 231.809 61.9713 230.554 61.5341C229.3 61.0969 228.149 60.4056 227.173 59.5035C225.338 57.6647 223.604 55.7267 221.981 53.6982C221.519 53.1961 220.776 53.9393 221.238 54.4415Z" fill="#00043B"/>
<path d="M72.4092 106.62C71.214 98.6853 70.5009 79.0801 70.5009 79.0801L36.5332 80.9181C40.852 83.0072 56.038 92.4482 56.038 92.4482L58.7197 107.514C58.7197 107.514 72.4193 106.479 72.4092 106.62Z" fill="#FFA47A"/>
<path d="M55.9494 92.4288L36.0729 81.3205C35.8746 81.2147 35.7145 81.0495 35.615 80.848C35.5155 80.6465 35.4817 80.4189 35.5182 80.1972C35.5548 79.9755 35.66 79.7708 35.8189 79.612C35.9779 79.4532 36.1826 79.3481 36.4044 79.3117C44.6402 78.0362 66.8568 74.7619 72.7022 73.9183C72.8681 73.8953 73.0371 73.9118 73.1954 73.9664C73.3537 74.021 73.4969 74.1122 73.6134 74.2326C73.7299 74.3529 73.8163 74.4991 73.8656 74.6591C73.915 74.8192 73.9259 74.9886 73.8974 75.1536C73.2747 79.1108 72.431 90.0986 71.8887 93.3126C71.7983 93.8148 65.29 85.7096 63.0101 87.0253C61.0415 88.1502 56.1201 92.3785 55.9494 92.4288Z" fill="#659FEB" stroke="#659FEB" stroke-width="0.32" stroke-miterlimit="10"/>
<path d="M54.7731 91.8643L57.9067 87.656C58.0834 87.4181 58.2114 87.1478 58.2834 86.8603C58.3553 86.5729 58.3698 86.2741 58.3259 85.981C58.282 85.688 58.1807 85.4065 58.0278 85.1527C57.8748 84.899 57.6733 84.6779 57.4346 84.5023V84.5023C57.1974 84.325 56.9275 84.1963 56.6405 84.1236C56.3534 84.0509 56.0548 84.0355 55.7618 84.0784C55.4689 84.1214 55.1872 84.2217 54.9331 84.3737C54.6789 84.5257 54.4573 84.7264 54.2809 84.9643L50.7656 89.6848" stroke="#F8F1EE" stroke-width="0.72" stroke-miterlimit="10"/>
<path d="M66.1945 97.4089C66.4054 102.16 66.7167 106.9 66.7167 106.9L72.6425 106.619L71.8792 93.3111C71.8792 93.3111 67.0281 87.8172 66.2547 87.8774C65.863 87.8774 65.9835 92.6582 66.1945 97.4089Z" fill="#CF5540"/>
<path d="M48.0546 170.427C42.7817 165.184 37.5791 149.215 37.5791 149.215C37.5791 149.215 1.5323 159.911 1.8537 160.012L23.7288 168.187L36.9162 178.08C36.9162 178.08 46.8996 170.959 48.0546 170.427Z" fill="#FFA47A" stroke="#FFA47A" stroke-width="1.3" stroke-miterlimit="10"/>
<path d="M23.0954 168.71L1.69235 160.726C1.48875 160.648 1.31351 160.511 1.18986 160.331C1.06621 160.152 1 159.939 1 159.721C1 159.504 1.06621 159.291 1.18986 159.111C1.31351 158.932 1.48875 158.795 1.69235 158.717C9.65699 156.286 31.1806 149.879 36.8452 148.211C37.5382 148.01 38.7837 149.125 38.9946 149.818C40.3731 154.399 42.0507 158.885 44.0164 163.247C44.2575 163.709 31.1906 160.937 29.1216 162.564C27.3941 163.94 23.6981 169.052 23.0954 168.71Z" fill="#659FEB" stroke="#659FEB" stroke-width="0.32" stroke-miterlimit="10"/>
<path d="M21.3665 167.756L23.5259 162.393C23.6371 162.118 23.6931 161.825 23.6907 161.529C23.6883 161.233 23.6275 160.94 23.5118 160.668C23.3961 160.395 23.2278 160.148 23.0165 159.941C22.8052 159.734 22.5551 159.57 22.2805 159.46V159.46C21.7262 159.242 21.1082 159.251 20.5608 159.486C20.0135 159.721 19.5811 160.163 19.3578 160.715L17.1582 166.169" stroke="#F8F1EE" stroke-width="0.72" stroke-miterlimit="10"/>
<path d="M40.0109 176.665L26.241 165.547L23.1074 168.701L37.1284 178.865L40.0109 176.665Z" fill="#CF5540"/>
<path d="M181.176 144.143C185.525 145.81 188.658 149.456 190.215 156.929C191.772 164.401 199.254 152.268 199.043 159.781C196.121 161.408 180.201 181.877 174.707 184.207C150.331 194.331 131.771 198.68 108.058 193.889C84.8567 189.209 71.6192 162.754 64.8698 145.238C59.5366 131.448 59.6471 120.209 57.2266 106.148C57.9296 104.511 71.6493 104.139 72.4026 104.772C81.7532 133.778 94.7096 149.968 112.326 153.273C128.778 156.396 140.448 153.835 152.501 149.978C152.461 149.948 165.929 138.288 181.176 144.143Z" fill="#365185" stroke="#365185" stroke-width="0.3" stroke-miterlimit="10"/>
<g style="mix-blend-mode:multiply" opacity="0.43">
<path d="M112.32 153.244C128.772 156.368 140.443 153.807 152.495 149.95C152.495 149.95 165.964 138.299 181.21 144.145C185.559 145.812 188.692 149.458 190.249 156.93C191.806 164.403 198.816 153.064 198.636 160.576C195.713 162.193 180.236 181.919 174.742 184.209" fill="#365185"/>
</g>
<path d="M197.623 156.989C190 149.958 175.527 138.729 174.261 139.503C161.204 141.08 148.409 151.314 142.523 162.553C141.398 164.725 140.008 166.749 138.385 168.579C130.983 176.825 122.657 183.996 108.786 189.329C92.0536 195.767 71.6248 189.942 48.4238 170.246C45.8627 172.958 36.8636 177.187 37.1247 178.944C46.5959 189.51 52.5016 198.55 64.2326 207.458C79.1876 218.788 104.407 234.315 126.564 226.079C146.318 218.851 163.571 206.086 176.26 189.309L197.623 156.989Z" fill="#4465A6" stroke="#4465A6" stroke-width="0.3" stroke-miterlimit="10"/>
<g style="mix-blend-mode:multiply" opacity="0.5">
<path d="M173.52 192.594C173.52 192.594 106.739 257.808 38.0605 178.182C38.0605 178.182 53.9898 205.741 86.692 220.948C88.3091 219.833 122.277 249.261 173.52 192.594Z" fill="#4465A6"/>
</g>
<path d="M227.646 94.5965C228.128 95.5105 231.392 119.183 226.792 127.158C223.709 132.501 206.333 148.431 198.56 158.193C198.56 158.193 182.801 148.411 173.973 139.934C176.433 130.704 184.739 94.948 201.713 85.5371C205.289 86.3197 208.816 87.3055 212.279 88.49C212.279 88.49 221.509 104.138 227.646 94.5965Z" fill="#FFA47A" stroke="#FFA47A" stroke-width="1.48" stroke-linecap="round" stroke-linejoin="round"/>
<path d="M174.694 134.621L173.98 137.433L193.164 154.267L174.694 134.621Z" fill="#CF5540"/>
<path d="M227.646 94.5965C228.128 95.5105 231.392 119.183 226.792 127.158C223.709 132.501 206.333 148.431 198.559 158.193C198.559 158.193 193.728 154.969 172.215 130.894C174.676 121.674 184.739 94.948 201.713 85.5371C205.288 86.3197 208.816 87.3055 212.279 88.49C212.279 88.49 221.509 104.138 227.646 94.5965Z" fill="#F8F1EE" stroke="#F8F1EE" stroke-width="1.48" stroke-miterlimit="10"/>
<g style="mix-blend-mode:multiply">
<path d="M198.559 158.193C198.559 158.193 193.728 154.969 172.215 130.894C174.676 121.674 184.739 94.948 201.713 85.5371C205.288 86.3197 208.816 87.3055 212.279 88.49" fill="#F8F1EE"/>
<path d="M198.559 158.193C198.559 158.193 193.728 154.969 172.215 130.894C174.676 121.674 184.739 94.948 201.713 85.5371C205.288 86.3197 208.816 87.3055 212.279 88.49" stroke="#F8F1EE" stroke-width="1.48" stroke-linecap="round" stroke-linejoin="round"/>
</g>
<path d="M378.592 311.5L518.601 371.833C521.355 372.997 524.444 373.096 527.267 372.111C530.09 371.125 532.446 369.125 533.877 366.499L623.567 198.981C627.123 192.442 626.952 184.99 619.921 182.559C619.921 182.559 589.469 154.939 535.836 139.372C520.298 134.862 469.919 130.463 469.919 130.463L378.592 311.5Z" stroke="#F8F1EE" stroke-width="1.06" stroke-linecap="round" stroke-linejoin="round"/>
<path d="M384.857 314.051L252.612 236.805C250.045 235.265 248.144 232.825 247.277 229.961C246.41 227.096 246.639 224.012 247.921 221.307L326.895 52.483C330.089 45.7537 337.682 45.2013 344.672 47.7725C366.708 55.8074 386.303 51.7096 430.465 85.9385C443.261 95.8516 476.505 134.018 476.505 134.018L384.857 314.051Z" stroke="#F8F1EE" stroke-width="1.06" stroke-linecap="round" stroke-linejoin="round"/>
<path d="M615.523 185.022C615.523 185.022 586.226 158.456 534.651 143.501C520.339 139.363 475.394 135.306 471.507 134.964C467.389 130.264 439.156 98.1741 427.766 89.3457C385.322 56.4527 366.5 60.44 345.308 52.6662C338.589 50.2055 331.297 50.7378 328.234 57.206L252.313 219.472C251.079 222.071 250.856 225.037 251.688 227.792C252.52 230.547 254.346 232.894 256.813 234.376L383.675 308.489H383.835L518.069 367.053C520.718 368.179 523.691 368.276 526.408 367.327C529.125 366.378 531.391 364.451 532.763 361.921L619.028 200.8C622.443 194.533 622.292 187.352 615.523 185.022Z" fill="#2E4470" stroke="#2E4470" stroke-width="0.3" stroke-miterlimit="10"/>
<path d="M376.021 304.742L390.454 312.274L479.994 135.978C474.492 135.587 469.311 133.248 465.38 129.379L376.021 304.742Z" fill="#1D2B47" stroke="#1D2B47" stroke-width="0.3" stroke-miterlimit="10"/>
<path d="M605.779 191.258C605.779 191.258 545.347 147.629 469.406 139.031C417.792 83.0477 347.285 59.9473 347.285 59.9473L262.979 223.79C279.842 228.34 371.952 290.791 385.702 301.879L385.552 302.171L386.164 302.251C386.559 302.563 386.935 302.899 387.289 303.255L387.671 302.522C400.979 305.344 462.115 324.006 522.989 355.834L605.779 191.258Z" fill="#CFB2A3"/>
<path d="M427.213 105.807C427.213 105.807 435.308 81.9736 452.101 75.0032C452.322 74.9088 452.563 74.8681 452.803 74.8843C453.043 74.9006 453.276 74.9734 453.483 75.0968C453.689 75.2202 453.864 75.3906 453.992 75.5943C454.12 75.798 454.198 76.0291 454.22 76.2687L454.712 81.6321L461.06 82.4858C461.346 82.5224 461.615 82.6394 461.836 82.8232C462.057 83.007 462.222 83.25 462.31 83.5238C462.399 83.7976 462.408 84.0909 462.336 84.3695C462.264 84.6481 462.114 84.9005 461.904 85.0971C455.657 90.9526 439.044 108.087 439.516 114.445L427.213 105.807Z" fill="#FF7F4D" stroke="#FF7F4D" stroke-width="0.6" stroke-miterlimit="10"/>
<g opacity="0.76">
<path d="M431.151 105.877C431.864 104.099 432.306 102.231 433.089 100.483C433.841 98.8553 434.711 97.2844 435.691 95.7827C437.735 92.783 439.987 89.9303 442.43 87.2455C443.434 86.1207 441.777 84.4835 440.793 85.6084C438.212 88.4469 435.838 91.4678 433.692 94.6477C432.677 96.1929 431.783 97.8149 431.02 99.4988C430.187 101.387 429.685 103.376 428.911 105.284C428.359 106.67 430.598 107.293 431.151 105.907V105.877Z" fill="#F2FCF9"/>
<path d="M445.856 83.1883L448.557 80.9083C448.77 80.6908 448.889 80.3988 448.889 80.0948C448.891 79.9419 448.863 79.79 448.807 79.6481C448.75 79.5062 448.665 79.3772 448.557 79.2686C448.449 79.16 448.321 79.074 448.18 79.0158C448.038 78.9577 447.887 78.9284 447.734 78.9297C447.432 78.9489 447.145 79.0692 446.92 79.2712L444.208 81.5511C443.995 81.7724 443.877 82.0676 443.877 82.3747C443.877 82.6788 443.996 82.9707 444.208 83.1883C444.429 83.4041 444.724 83.5264 445.032 83.5297C445.336 83.5199 445.626 83.3983 445.846 83.1883H445.856Z" fill="#F2FCF9"/>
</g>
<path d="M350.218 66.0448C361.788 63.1221 362.11 65.4121 373.66 68.385C384.23 70.8746 394.367 74.9373 403.731 80.4374C413.222 85.9514 424.732 93.8055 432.586 101.469C445.291 113.863 456.691 125.272 468.583 138.47L385.31 298.767C385.31 298.767 306.457 204.135 270.391 221.732L350.218 66.0448Z" fill="#F8F1EE"/>
<path d="M350.46 66.9168C354.025 66.0229 357.782 65.1591 361.458 65.822C364.983 66.4648 368.368 67.8809 371.823 68.8351C376.372 70.0906 380.932 71.2657 385.382 72.8526C389.673 74.3818 393.854 76.204 397.896 78.3063C406.306 82.7185 414.33 87.8321 421.88 93.5928C429.805 99.619 436.725 106.76 443.745 113.771C452.021 122.036 460.127 130.463 467.951 139.161L467.81 138.066L465.58 142.305L459.554 153.985L450.585 171.251L439.698 192.212L427.716 215.312L415.613 238.593L404.334 260.308L394.803 278.658L387.963 291.855L385.783 295.973C385.368 296.664 384.999 297.382 384.679 298.122C384.679 298.213 384.578 298.303 384.528 298.393L385.944 298.213C383.272 294.999 380.49 291.875 377.698 288.772C370.942 281.266 363.958 273.967 356.747 266.876C347.846 258.036 338.457 249.7 328.625 241.908C319.425 234.717 309.642 227.847 298.875 223.217C290.84 219.741 281.349 217.06 272.712 219.902C271.76 220.218 270.831 220.597 269.93 221.037L271.155 222.272L273.284 218.114L279.079 206.805L287.707 189.992L298.172 169.563L309.622 147.156L321.203 124.567L331.999 103.476L341.169 85.588L347.788 72.8325C348.793 70.8237 349.887 68.815 350.892 66.8063L351.032 66.5351C351.555 65.5307 350.028 64.5967 349.475 65.6312L347.346 69.7792L341.521 81.0382L332.893 97.8613L322.428 118.28L310.958 140.657L299.378 163.246L288.581 184.337L279.421 202.225L272.862 215.021C271.858 217.03 270.753 219.038 269.749 221.047C269.749 221.137 269.658 221.218 269.608 221.308C269.517 221.481 269.483 221.678 269.512 221.872C269.541 222.065 269.631 222.244 269.77 222.382C269.908 222.52 270.087 222.611 270.28 222.64C270.473 222.669 270.671 222.635 270.844 222.544C278.708 218.747 287.918 220.776 295.712 223.799C306.308 227.917 315.95 234.435 324.949 241.285C334.803 248.872 344.194 257.042 353.071 265.752C360.544 272.976 367.772 280.442 374.755 288.149C377.005 290.62 379.232 293.121 381.434 295.652C382.439 296.837 383.443 298.183 384.548 299.277C384.595 299.328 384.638 299.382 384.679 299.438C384.777 299.533 384.896 299.605 385.026 299.649C385.156 299.692 385.294 299.705 385.43 299.688C385.566 299.671 385.696 299.623 385.812 299.548C385.927 299.474 386.023 299.374 386.095 299.257L388.324 294.969L394.351 283.288L403.32 266.023L414.207 245.062L426.189 221.961L438.292 198.67L449.571 176.955L459.102 158.606L465.952 145.418C467.027 143.339 468.142 141.28 469.186 139.191C469.236 139.101 469.287 139.01 469.327 138.92C469.424 138.747 469.463 138.546 469.438 138.349C469.412 138.152 469.324 137.968 469.186 137.825C462.095 129.941 454.763 122.267 447.291 114.725C440.11 107.503 433.029 100.021 425.014 93.7033C417.368 87.6625 409.22 82.2863 400.658 77.6334C392.526 73.3047 383.904 69.9664 374.976 67.6901C372.435 67.0272 369.955 66.3242 367.434 65.5207C365.743 64.9387 364.023 64.4459 362.281 64.0443C358.133 63.2106 353.995 64.0443 349.948 65.0486C349.7 65.1166 349.489 65.2801 349.362 65.5033C349.235 65.7265 349.202 65.9911 349.27 66.2388C349.338 66.4865 349.501 66.6971 349.724 66.8243C349.947 66.9514 350.212 66.9847 350.46 66.9168Z" fill="#F8F1EE"/>
<path d="M511.501 340.467C476.185 317.594 435.876 303.572 393.989 299.589C392.834 299.478 392.844 301.276 393.989 301.387C435.521 305.392 475.48 319.326 510.496 342.013C511.501 342.646 512.384 341.089 511.41 340.467H511.501Z" fill="#F8F1EE"/>
<path d="M386.788 302.05C404.372 305.631 421.728 310.253 438.764 315.891C456.488 321.658 473.848 328.486 490.751 336.34C499.72 340.538 508.548 345.068 517.135 350.019C517.34 350.114 517.572 350.129 517.787 350.061C518.002 349.993 518.184 349.848 518.297 349.653C518.41 349.458 518.446 349.228 518.399 349.008C518.351 348.787 518.223 348.593 518.039 348.462C502.392 339.546 486.138 331.74 469.398 325.101C452.09 318.149 434.401 312.187 416.417 307.243C406.775 304.592 397.063 302.221 387.291 300.283C386.166 300.052 385.673 301.789 386.818 302.02L386.788 302.05Z" fill="#F8F1EE"/>
<path d="M275.2 222.654C283.436 223.919 290.989 227.525 298.301 231.362C305.311 235.038 312.161 239.001 318.85 243.253C332.208 251.746 344.839 261.33 356.614 271.908C363.203 277.827 369.507 284.044 375.527 290.559C376.32 291.413 377.586 290.137 376.802 289.283C355.103 265.837 329.665 246.152 301.525 231.03C293.369 226.661 284.912 222.332 275.672 220.916C274.537 220.745 274.055 222.483 275.2 222.654Z" fill="#F8F1EE"/>
<path d="M270.591 223.55C287.197 230.952 303.213 239.611 318.499 249.452C334.558 259.655 349.986 270.817 364.7 282.878C372.454 289.225 379.983 295.834 387.289 302.704C388.132 303.507 389.408 302.232 388.564 301.438C375.227 288.915 361.14 277.216 346.381 266.406C331.12 255.089 315.152 244.76 298.573 235.482C289.764 230.58 280.755 226.041 271.515 221.993C270.511 221.531 269.506 223.088 270.611 223.55H270.591Z" fill="#F8F1EE"/>
<path d="M600.284 193.427C592.108 208.827 583.936 224.227 575.767 239.628L551.26 285.829L537.42 311.942C536.878 312.947 538.425 313.881 538.977 312.856L563.484 266.655C571.659 251.255 579.831 235.855 588 220.454L601.84 194.341C602.383 193.336 600.836 192.412 600.284 193.437V193.427Z" fill="#F8F1EE"/>
<path d="M597.766 191.179C593.316 180.131 591.267 181.196 582.067 173.603C573.82 166.531 564.557 160.738 554.588 156.418C544.544 151.999 531.417 147.318 520.6 145.48C503.104 142.467 487.275 140.529 469.628 138.711L385.482 299.802C385.482 299.802 513.037 311.312 520.068 350.823L597.766 191.179Z" fill="#F8F1EE"/>
<path d="M598.63 190.937C597.495 187.713 595.862 184.686 593.789 181.968C591.949 179.996 589.879 178.253 587.622 176.775C584.056 174.154 580.712 171.261 577.177 168.59C573.438 165.736 569.512 163.135 565.425 160.806C556.779 156.07 547.698 152.176 538.308 149.175C533.476 147.547 528.553 146.206 523.563 145.158C518.2 144.053 512.756 143.3 507.353 142.486C494.808 140.628 482.244 139.142 469.599 137.836C469.441 137.833 469.285 137.874 469.149 137.954C469.013 138.034 468.901 138.149 468.825 138.288L466.576 142.587L460.449 154.308L451.41 171.633L440.362 192.775L428.259 215.936L416.086 239.297L404.696 261.102L395.065 279.532L388.145 292.79C387.05 294.879 385.915 296.968 384.86 299.077C384.86 299.168 384.76 299.258 384.72 299.348C384.644 299.486 384.604 299.64 384.605 299.797C384.607 299.954 384.648 300.107 384.726 300.244C384.803 300.38 384.915 300.494 385.049 300.574C385.183 300.655 385.336 300.7 385.493 300.704C389.711 301.086 393.91 301.598 398.108 302.131C408.346 303.43 418.537 305.016 428.681 306.891C441.335 309.174 453.863 312.111 466.214 315.69C477.774 319.114 489.365 323.202 499.84 329.259C507.393 333.628 515.619 339.624 518.471 348.281C518.769 349.188 519.004 350.114 519.174 351.053C519.225 351.221 519.324 351.37 519.457 351.483C519.59 351.597 519.754 351.669 519.927 351.692C520.101 351.716 520.277 351.689 520.436 351.615C520.594 351.54 520.728 351.422 520.822 351.274L522.901 347.016L528.575 335.415L536.922 318.261L547.176 297.219L558.345 274.269L569.614 251.109L580.129 229.515L589.018 211.265L595.416 198.138C596.42 196.059 597.425 193.99 598.429 191.901L598.56 191.63C599.062 190.626 597.555 189.621 597.003 190.716L594.864 194.985L589.259 206.585L580.913 223.74L570.668 244.831L559.49 267.771L548.221 290.932L537.705 312.526L528.816 330.775L522.428 343.912L520.42 348.01C520.041 348.698 519.706 349.409 519.415 350.139C519.378 350.233 519.334 350.323 519.285 350.411L520.932 350.631C519.305 341.673 512.023 335.024 504.782 330.223C494.828 323.644 483.419 319.285 472.11 315.669C459.639 311.765 446.953 308.585 434.114 306.148C423.297 304.019 412.4 302.261 401.462 300.805C397.917 300.343 394.372 299.901 390.826 299.509C389.711 299.379 388.586 299.258 387.472 299.148C386.896 299.036 386.311 298.979 385.724 298.977H385.513L386.286 300.333L388.536 296.024L394.663 284.313L403.702 266.978L414.75 245.836L426.823 222.655L439.036 199.273L450.425 177.458L460.057 159.028L466.977 145.771L469.137 141.643C469.555 140.943 469.931 140.218 470.262 139.473C470.262 139.383 470.362 139.292 470.402 139.202L469.629 139.654C480.677 140.789 491.725 142.054 502.663 143.671C513.018 145.148 523.403 146.584 533.436 149.607C542.877 152.364 552.047 155.971 560.836 160.384C564.841 162.434 568.703 164.753 572.396 167.324C576.303 170.046 579.909 173.109 583.655 176.022C586.236 178.031 589.109 179.778 591.439 182.048C594.04 184.609 595.547 188.075 596.892 191.379C597.324 192.524 599.062 192.012 598.63 190.937Z" fill="#F8F1EE"/>
<path opacity="0.42" d="M467.788 138.859C467.788 138.859 417.841 221.057 389.558 232.446C350.538 248.145 300.4 223.528 300.4 223.528C300.4 223.528 376.913 272.872 385.31 298.805L467.788 138.859Z" fill="#E0CFC8"/>
<path opacity="0.42" d="M475.343 137.465C475.343 137.465 439.939 226.854 447.923 256.312C458.972 296.898 508.828 322.028 508.828 322.028C508.828 322.028 423.377 290.792 397.564 299.741L475.343 137.465Z" fill="#E0CFC8"/>
<g opacity="0.46">
<path d="M354.816 84.1913C356.497 84.0678 358.188 84.1793 359.838 84.5228C360.651 84.6433 361.425 84.8944 362.218 85.0752C363.012 85.256 363.755 85.5673 364.528 85.8184C365.302 86.0695 366.025 86.411 366.768 86.7424C367.511 87.0739 368.234 87.4153 368.938 87.8573C370.428 88.6707 371.8 89.6845 373.015 90.8704L372.935 91.0713C369.922 90.0669 366.838 88.9119 363.795 87.8472C360.752 86.7826 357.769 85.6175 354.756 84.4223L354.816 84.1913Z" fill="#659FEB"/>
<path d="M382.827 96.7754L385.308 97.7798L387.769 98.7841L392.64 100.974L397.401 103.404C398.967 104.248 400.514 105.142 402.071 106.016C403.628 106.889 405.084 107.844 406.641 108.798L411.11 111.73L415.469 114.844L419.728 118.088L423.856 121.493C425.202 122.668 426.557 123.833 427.873 125.028L431.76 128.704C433.026 129.963 434.274 131.235 435.506 132.521C436.712 133.837 437.937 135.132 439.122 136.458L442.567 140.546L445.821 144.774C446.886 146.2 447.914 147.653 448.905 149.133L448.744 149.264C430.517 127.526 408.051 109.731 382.717 96.9662L382.827 96.7754Z" fill="#659FEB"/>
<path d="M343.45 104.137H345.63L347.799 104.227L352.138 104.599L356.457 105.282C357.883 105.563 359.299 105.904 360.725 106.216C362.151 106.527 363.537 106.979 364.944 107.401L369.092 108.807C370.447 109.339 371.793 109.912 373.109 110.464L377.127 112.312L380.983 114.401C382.239 115.155 383.504 115.888 384.74 116.661L388.355 119.142C389.52 120.019 390.675 120.91 391.82 121.814C392.925 122.768 394.04 123.702 395.125 124.676L398.248 127.689L401.151 130.943C402.085 132.058 402.969 133.203 403.833 134.368L403.682 134.509C387.69 117.776 366.395 107.101 343.42 104.297L343.45 104.137Z" fill="#659FEB"/>
<path d="M414.507 146.32C416.788 147.268 418.971 148.436 421.026 149.805C422.03 150.428 423.034 151.171 424.039 151.814C425.043 152.457 425.957 153.291 426.911 154.034C427.865 154.777 428.769 155.591 429.663 156.394C430.557 157.198 431.451 158.021 432.285 158.915C434.039 160.65 435.626 162.547 437.025 164.58L436.885 164.75L425.575 155.711L414.387 146.481L414.507 146.32Z" fill="#659FEB"/>
<path d="M327.699 147.396C330.08 148.039 332.48 148.622 334.82 149.405L338.346 150.51C339.521 150.892 340.686 151.314 341.851 151.705C346.501 153.383 351.051 155.311 355.58 157.31C364.589 161.436 373.249 166.286 381.473 171.813C389.698 177.339 397.449 183.54 404.644 190.353C408.25 193.748 411.674 197.304 415.039 200.909C416.686 202.747 418.303 204.595 419.92 206.453C421.537 208.311 423.124 210.19 424.691 212.098L424.54 212.238C417.721 205.208 410.911 198.077 403.549 191.589C396.216 185.061 388.444 179.044 380.288 173.58C364.012 162.585 346.321 153.844 327.699 147.597V147.396Z" fill="#659FEB"/>
<path d="M321.141 165.344C324.049 165.693 326.909 166.367 329.668 167.352C331.054 167.784 332.38 168.357 333.735 168.879C335.091 169.401 336.377 170.084 337.683 170.707C338.988 171.33 340.234 172.073 341.479 172.816C342.724 173.559 343.95 174.333 345.125 175.197C347.536 176.847 349.759 178.757 351.754 180.891L351.643 181.072C341.954 174.972 331.719 169.784 321.07 165.575L321.141 165.344Z" fill="#659FEB"/>
<path d="M364.861 191.898L366.407 192.772L367.904 193.706L370.917 195.564C372.926 196.86 374.834 198.166 376.732 199.522C378.631 200.877 380.519 202.274 382.407 203.65L387.951 207.938C389.759 209.415 391.587 210.881 393.375 212.377C395.163 213.874 396.95 215.391 398.668 216.978C400.385 218.564 402.133 220.131 403.83 221.748C405.528 223.365 407.195 225.033 408.772 226.77L408.631 226.941L386.615 209.595L364.74 192.059L364.861 191.898Z" fill="#659FEB"/>
<path d="M333.977 217.552C336.016 217.353 338.073 217.607 340.003 218.296C340.953 218.612 341.882 218.988 342.785 219.421C343.669 219.873 344.522 220.425 345.376 220.897C346.23 221.369 346.993 222.032 347.756 222.655C348.515 223.285 349.24 223.955 349.926 224.663C351.336 226.08 352.518 227.707 353.431 229.484L353.291 229.645C350.453 227.105 347.432 224.779 344.251 222.685C342.667 221.627 341.016 220.67 339.31 219.822C337.6 218.984 335.823 218.292 333.997 217.753L333.977 217.552Z" fill="#659FEB"/>
<path d="M359.909 236.184C362.49 237.696 364.945 239.412 367.251 241.316C368.426 242.22 369.501 243.224 370.636 244.168C371.771 245.112 372.795 246.177 373.88 247.181C374.965 248.186 375.969 249.26 376.984 250.335C377.998 251.41 378.992 252.474 379.997 253.619C381.979 255.86 383.779 258.254 385.38 260.781L385.229 260.931L372.444 248.718L359.799 236.344L359.909 236.184Z" fill="#659FEB"/>
<path d="M479.882 160.724C481.775 160.276 483.725 160.114 485.667 160.242C486.671 160.242 487.565 160.412 488.509 160.503C489.453 160.593 490.367 160.854 491.301 161.035C492.235 161.216 493.129 161.527 494.033 161.828C494.937 162.13 495.821 162.451 496.685 162.833C498.47 163.59 500.135 164.605 501.626 165.846L501.566 166.047C498.011 164.922 494.435 163.867 490.809 163.034C487.183 162.2 483.528 161.457 479.852 160.854L479.882 160.724Z" fill="#659FEB"/>
<path d="M514.855 170.125C517.698 170.416 520.49 171.009 523.312 171.541L527.48 172.546C528.856 172.927 530.222 173.349 531.598 173.761C532.974 174.173 534.32 174.655 535.676 175.137L539.693 176.673C541.009 177.226 542.325 177.808 543.64 178.381L547.527 180.209L551.334 182.218C552.579 182.931 553.835 183.614 555.07 184.347L558.716 186.637C559.911 187.42 561.086 188.244 562.261 189.057C563.436 189.871 564.571 190.745 565.706 191.629L569.031 194.34C571.16 196.269 573.309 198.147 575.258 200.246L575.117 200.407C557.406 186.149 536.832 175.873 514.795 170.276L514.855 170.125Z" fill="#659FEB"/>
<path d="M470.318 182.478C474.152 182.036 478.025 182.076 481.848 182.598C483.767 182.809 485.655 183.201 487.553 183.603C488.497 183.824 489.421 184.085 490.356 184.316L493.138 185.129L495.869 186.134C496.763 186.495 497.667 186.827 498.561 187.208C500.319 188.002 502.076 188.795 503.754 189.739C507.161 191.555 510.329 193.789 513.185 196.388L513.064 196.569C500.079 188.7 485.448 183.943 470.318 182.669V182.478Z" fill="#659FEB"/>
<path d="M528.344 202.205C532.171 203.14 535.916 204.383 539.543 205.921C541.371 206.634 543.129 207.488 544.916 208.302C546.704 209.115 548.422 210.059 550.159 210.963C551.897 211.867 553.574 212.881 555.261 213.886C556.949 214.89 558.596 215.955 560.193 217.08C563.468 219.272 566.561 221.724 569.443 224.412L569.333 224.592C562.751 220.421 556.021 216.501 549.145 212.831C542.268 209.162 535.305 205.684 528.254 202.396L528.344 202.205Z" fill="#659FEB"/>
<path d="M456.982 207.939C458.925 207.885 460.867 208.064 462.768 208.471C463.702 208.622 464.606 208.903 465.52 209.124C466.433 209.345 467.317 209.687 468.211 209.968C469.105 210.249 469.969 210.621 470.843 210.972C471.717 211.324 472.57 211.726 473.394 212.188C475.134 213.051 476.764 214.124 478.245 215.382L478.175 215.582C474.599 214.427 471.064 213.162 467.508 211.957C463.953 210.751 460.417 209.456 456.912 208.12L456.982 207.939Z" fill="#659FEB"/>
<path d="M486.181 219.239C487.1 219.092 488.035 219.092 488.953 219.239C489.727 219.37 490.482 219.593 491.203 219.902C491.918 220.21 492.593 220.605 493.212 221.077C493.955 221.643 494.605 222.32 495.14 223.085L495.09 223.296C493.464 222.983 491.876 222.502 490.35 221.86C488.835 221.196 487.394 220.375 486.051 219.409L486.181 219.239Z" fill="#659FEB"/>
<path d="M437.174 243.744L440.478 244.146L443.783 244.618L450.351 245.763L456.859 247.249L463.318 248.947C465.457 249.559 467.596 250.202 469.715 250.885L476.043 253.065L482.27 255.505L488.417 258.147C496.543 261.83 504.383 266.117 511.869 270.973L517.403 274.719L522.806 278.626L527.999 282.814C529.696 284.25 531.374 285.717 533.021 287.203L532.89 287.374C504.789 265.665 472.018 250.799 437.174 243.955V243.744Z" fill="#659FEB"/>
<path d="M463.672 271.215C465.796 270.396 468.119 270.245 470.331 270.783C471.419 271 472.487 271.306 473.525 271.697C474.529 272.088 475.533 272.571 476.538 273.043C477.542 273.515 478.416 274.117 479.31 274.71C480.204 275.302 481.068 275.935 481.871 276.638C483.552 277.998 485.066 279.552 486.381 281.268L486.27 281.449C482.745 279.179 479.24 276.839 475.544 274.921C473.717 273.915 471.808 273.065 469.839 272.38C467.881 271.67 465.803 271.346 463.722 271.426L463.672 271.215Z" fill="#659FEB"/>
<path d="M496.233 286.07C498.912 286.75 501.526 287.661 504.047 288.792C505.313 289.294 506.518 289.927 507.753 290.5C508.989 291.072 510.164 291.755 511.369 292.388C512.574 293.021 513.719 293.744 514.884 294.457C516.049 295.17 517.194 295.893 518.299 296.697C520.592 298.233 522.746 299.967 524.737 301.879L524.637 302.06L510.335 294.256L496.133 286.221L496.233 286.07Z" fill="#659FEB"/>
</g>
<path d="M193.739 97.7114C190.415 143.35 262.126 168.821 262.126 168.821L278.196 173.109C292.428 181.928 299.67 183.093 299.67 183.093L290.329 177.458L304.762 181.978C305.154 182.088 304.21 181.054 303.858 180.863L292.81 174.947L307.614 178.653C307.685 178.679 307.763 178.675 307.83 178.643C307.898 178.611 307.951 178.553 307.976 178.483C308.001 178.412 307.997 178.334 307.965 178.266C307.933 178.199 307.876 178.146 307.805 178.121L293.925 171.09C293.925 171.09 308.177 174.365 306.982 173.099C305.786 171.834 291.765 166.31 291.765 166.31C291.765 166.31 296.365 159.51 295.954 158.907C295.281 157.903 290.369 160.816 285.337 161.609C282.164 162.111 258.31 151.957 258.31 151.957C240.05 143.762 216.408 123.252 219.14 93.8546C219.14 93.8546 218.015 84.1122 206.213 83.1179C194.412 82.1236 193.739 97.7114 193.739 97.7114Z" fill="#FFA47A" stroke="#FFA47A" stroke-width="1.48" stroke-linecap="round" stroke-linejoin="round"/>
<path d="M234.145 133.677C224.935 123.443 222.253 112.184 219.169 93.8742C219.169 93.8742 218.045 84.1318 206.243 83.1375C194.442 82.1432 193.739 97.7109 193.739 97.7109C192.624 113.058 193.317 122.238 203.592 132.864L234.145 133.677Z" fill="#FF7F4D" stroke="#FF7F4D" stroke-width="0.6" stroke-miterlimit="10"/>
<path d="M235.079 134.34L212.44 139.743C210.325 137.935 208.4 135.916 206.695 133.717L235.079 134.34Z" fill="#CF5540"/>
<path d="M359.087 286.935C349.907 312.597 332.22 328.787 306.809 327.009C286.411 325.583 267.508 316.293 249.199 307.173C242.932 304.05 236.504 300.805 231.793 295.623C224.853 287.99 222.633 277.313 220.665 267.189C218.696 257.065 216.758 247.002 214.809 236.908C213.313 229.214 211.726 221.26 207.206 214.812C202.687 208.363 194.421 203.954 186.948 206.335C179.476 208.715 175.679 219.773 181.565 224.946C193.979 217.483 193.145 199.264 188.937 185.414C181.876 162.208 169.885 140.802 153.784 122.661C142.736 110.267 128.564 98.9677 112.002 98.2245C90.5589 97.2201 72.5205 114.043 60.1868 131.6C47.4012 149.809 37.5182 170.77 36.1422 192.946C35.4291 204.105 37.6287 216.629 46.5575 223.409C55.4864 230.188 71.9078 225.608 72.2894 214.43" stroke="#FF7F4D" stroke-width="2.12" stroke-linecap="round" stroke-linejoin="round" stroke-dasharray="9.09 9.09"/>
<g style="mix-blend-mode:lighten">
<path d="M575.098 196.872C581.124 199.363 588.155 198.037 593.749 194.643C599.344 191.248 603.482 186.025 606.977 180.582C611.888 172.898 615.765 163.748 613.837 154.83C612.832 150.159 610.291 145.961 607.519 142.064C604.18 137.098 599.991 132.76 595.145 129.248C590.233 125.898 584.536 123.879 578.611 123.387C572.686 122.896 566.734 123.949 561.337 126.444C555.94 128.939 551.282 132.791 547.818 137.623C544.354 142.456 542.202 148.104 541.572 154.016" stroke="#F8F1EE" stroke-width="2.12" stroke-linecap="round" stroke-linejoin="round" stroke-dasharray="7.33 7.33"/>
</g>
<path d="M656.914 259.284C656.758 260.11 656.361 260.871 655.772 261.471C655.184 262.071 654.431 262.483 653.608 262.655C652.786 262.827 651.931 262.751 651.151 262.437C650.372 262.123 649.703 261.585 649.229 260.891C648.756 260.196 648.498 259.377 648.49 258.537C648.482 257.697 648.724 256.873 649.184 256.17C649.644 255.467 650.303 254.916 651.076 254.587C651.85 254.258 652.703 254.166 653.529 254.322C654.077 254.425 654.6 254.634 655.068 254.94C655.535 255.245 655.937 255.639 656.252 256.1C656.566 256.561 656.787 257.079 656.9 257.626C657.014 258.172 657.018 258.736 656.914 259.284Z" fill="#659FEB"/>
<path d="M608.809 248.646C611.938 248.646 614.474 246.11 614.474 242.981C614.474 239.853 611.938 237.316 608.809 237.316C605.681 237.316 603.145 239.853 603.145 242.981C603.145 246.11 605.681 248.646 608.809 248.646Z" stroke="#659FEB" stroke-width="1.06" stroke-miterlimit="10"/>
<path d="M419.647 61.2518C419.452 62.2842 418.956 63.2357 418.22 63.986C417.485 64.7362 416.543 65.2515 415.515 65.4667C414.486 65.6819 413.417 65.5874 412.442 65.195C411.468 64.8026 410.631 64.1301 410.039 63.2624C409.446 62.3947 409.124 61.3708 409.114 60.3201C409.103 59.2695 409.404 58.2393 409.979 57.3597C410.554 56.4802 411.376 55.7908 412.343 55.3787C413.309 54.9667 414.376 54.8505 415.409 55.0448C416.095 55.1738 416.749 55.4368 417.333 55.8186C417.917 56.2004 418.421 56.6937 418.814 57.2701C419.208 57.8465 419.484 58.4948 419.627 59.178C419.77 59.8612 419.777 60.5659 419.647 61.2518Z" fill="#FF7F4D"/>
<path d="M385.319 326.929C385.111 328.03 384.581 329.044 383.797 329.844C383.012 330.644 382.009 331.193 380.912 331.422C379.816 331.652 378.676 331.551 377.637 331.132C376.598 330.714 375.706 329.997 375.074 329.072C374.443 328.147 374.1 327.055 374.088 325.935C374.077 324.815 374.398 323.717 375.01 322.779C375.623 321.841 376.5 321.106 377.53 320.667C378.561 320.228 379.698 320.103 380.799 320.31C382.274 320.593 383.577 321.448 384.424 322.688C385.27 323.928 385.592 325.453 385.319 326.929V326.929Z" stroke="#FF7F4D" stroke-width="1.06" stroke-miterlimit="10"/>
<path d="M241.997 196.391C241.752 197.7 241.123 198.906 240.192 199.857C239.26 200.808 238.068 201.462 236.765 201.735C235.462 202.008 234.107 201.889 232.872 201.392C231.637 200.895 230.577 200.043 229.826 198.944C229.076 197.845 228.668 196.547 228.655 195.216C228.641 193.885 229.023 192.58 229.752 191.465C230.481 190.351 231.524 189.478 232.749 188.957C233.974 188.436 235.326 188.29 236.634 188.537C238.386 188.868 239.935 189.882 240.941 191.354C241.946 192.827 242.326 194.639 241.997 196.391Z" fill="#659FEB" stroke="#659FEB" stroke-width="1.06" stroke-linecap="round" stroke-linejoin="round" stroke-dasharray="9.09 9.09"/>
<path d="M117.939 281.722C120.385 281.722 122.368 279.739 122.368 277.293C122.368 274.846 120.385 272.863 117.939 272.863C115.493 272.863 113.51 274.846 113.51 277.293C113.51 279.739 115.493 281.722 117.939 281.722Z" fill="#FF7F4D"/>
<path d="M18.5232 242.621C21.4021 242.621 23.7359 240.287 23.7359 237.408C23.7359 234.529 21.4021 232.195 18.5232 232.195C15.6443 232.195 13.3105 234.529 13.3105 237.408C13.3105 240.287 15.6443 242.621 18.5232 242.621Z" stroke="#659FEB" stroke-width="0.95" stroke-miterlimit="10"/>
</svg>
