<svg width="182" height="187" viewBox="0 0 182 187" fill="none" xmlns="http://www.w3.org/2000/svg">
<path fill-rule="evenodd" clip-rule="evenodd" d="M40.2015 0C29.5968 0 21 8.59682 21 19.2015V54.693V87.5146V135.423C21 139.401 26.1618 141.393 29.1807 138.58L63.3816 106.716H140.8C151.404 106.716 160 98.12 160 87.5162V19.2015C160 8.59681 151.403 0 140.798 0H40.2015Z" fill="#5191FB"/>
<circle cx="54.1826" cy="55.4707" r="8.96774" fill="#E8E8E8"/>
<circle cx="90.0537" cy="55.4707" r="8.96774" fill="#E8E8E8"/>
<circle cx="125.925" cy="55.4707" r="8.96774" fill="#E8E8E8"/>
<ellipse cx="91" cy="163.699" rx="91" ry="22.75" fill="#435167"/>
<circle cx="135" cy="126.949" r="39" fill="#C1CCDB"/>
<ellipse cx="133" cy="124.449" rx="37" ry="36.5" fill="#E8E8E8"/>
<circle cx="118.007" cy="117.239" r="3.34559" fill="#363636" stroke="#363636" stroke-width="1.33824"/>
<circle cx="130.054" cy="117.239" r="3.34559" fill="#363636" stroke="#363636" stroke-width="1.33824"/>
<rect x="138" y="131.143" width="10" height="19" rx="5" fill="#363636"/>
<path fill-rule="evenodd" clip-rule="evenodd" d="M133.324 99.4925C133.026 99.4925 132.744 99.3744 132.496 99.2087C132.024 98.8937 131.498 98.7246 130.986 98.7246C130.475 98.7246 129.949 98.8937 129.477 99.2087C129.229 99.3744 128.947 99.4925 128.649 99.4925C127.729 99.4925 127.181 98.5088 127.878 97.9089C128.741 97.1657 129.818 96.7246 130.986 96.7246C132.155 96.7246 133.232 97.1657 134.095 97.9089C134.792 98.5088 134.244 99.4925 133.324 99.4925Z" fill="#363636"/>
<path fill-rule="evenodd" clip-rule="evenodd" d="M120.762 99.4925C120.463 99.4925 120.181 99.3744 119.933 99.2087C119.462 98.8937 118.936 98.7246 118.424 98.7246C117.912 98.7246 117.386 98.8937 116.915 99.2087C116.667 99.3744 116.385 99.4925 116.086 99.4925C115.167 99.4925 114.618 98.5088 115.315 97.9089C116.178 97.1657 117.256 96.7246 118.424 96.7246C119.592 96.7246 120.669 97.1657 121.533 97.9089C122.23 98.5088 121.681 99.4925 120.762 99.4925Z" fill="#363636"/>
</svg>
