<svg width="67" height="91" viewBox="0 0 67 91" fill="none" xmlns="http://www.w3.org/2000/svg">
<path fill-rule="evenodd" clip-rule="evenodd" d="M9.13091 0C4.08805 0 0 4.08805 0 9.13092V84.2848C0 87.6467 2.72536 90.3721 6.08727 90.3721H42.8422C42.8444 90.3721 42.8466 90.3721 42.8488 90.3721L53.7141 90.3721L64.1434 90.3721C65.7211 90.3721 67 89.0932 67 87.5155C67 85.9379 65.7211 84.6589 64.1434 84.6589H62.1838C62.6102 83.6032 62.845 82.4496 62.845 81.2412V9.13091C62.845 4.08805 58.7569 0 53.7141 0H9.13091Z" fill="#5C5C5C"/>
<path fill-rule="evenodd" clip-rule="evenodd" d="M39.9193 59.2094C38.2384 59.2094 36.8757 60.572 36.8757 62.253V74.7907H8.75653C7.07557 74.7907 5.71289 76.1534 5.71289 77.8344V81.6153C5.71289 83.2963 7.07557 84.659 8.75653 84.659L39.9193 84.659L43.1809 84.659C43.182 84.659 43.1832 84.659 43.1843 84.659H62.8447V59.2094H39.9193Z" fill="#9C9C9C"/>
<path fill-rule="evenodd" clip-rule="evenodd" d="M62.8447 73.2325H61.2865V74.7907H8.30979C6.87556 74.7907 5.71289 75.9534 5.71289 77.3876H62.8447L62.8447 74.7907V73.2325Z" fill="#363636"/>
<path d="M0 11.1208C0 4.97896 4.97897 0 11.1208 0H55.8792C62.021 0 67 4.97897 67 11.1208V69.2303C67 72.3012 64.5105 74.7907 61.4396 74.7907H11.1208C4.97897 74.7907 0 69.8117 0 63.6699V11.1208Z" fill="#5C5C5C"/>
<rect x="12.0078" y="15.598" width="43.7523" height="10.6527" rx="3.04364" fill="#9C9C9C"/>
</svg>
