<svg width="124" height="189" viewBox="0 0 124 189" fill="none" xmlns="http://www.w3.org/2000/svg">
<g clip-path="url(#clip0_782_6659)">
<rect x="0.767578" width="122.464" height="188.406" fill="#363636"/>
<path fill-rule="evenodd" clip-rule="evenodd" d="M38.5723 51.8115C33.8218 51.8115 29.9707 55.6626 29.9707 60.4131V131.21C29.9707 134.377 32.5381 136.945 35.7051 136.945H80.5709C80.5873 136.945 80.6037 136.945 80.62 136.945H90.3955C91.8817 136.945 93.0865 135.74 93.0865 134.254C93.0865 132.767 91.8817 131.563 90.3955 131.563H88.5497C88.9513 130.568 89.1725 129.481 89.1725 128.343V60.4131C89.1725 55.6626 85.3214 51.8115 80.5709 51.8115H38.5723Z" fill="#5C5C5C"/>
<path fill-rule="evenodd" clip-rule="evenodd" d="M67.5763 107.588C65.9928 107.588 64.7091 108.872 64.7091 110.456V122.267H38.2207C36.6372 122.267 35.3535 123.55 35.3535 125.134V128.696C35.3535 130.279 36.6372 131.563 38.2207 131.563H70.6494C70.659 131.563 70.6685 131.563 70.678 131.563H89.1727V107.588H67.5763Z" fill="#9C9C9C"/>
<path fill-rule="evenodd" clip-rule="evenodd" d="M89.1738 120.798H87.706V122.266H37.7999C36.4488 122.266 35.3535 123.361 35.3535 124.712H89.1733V122.266H89.1738V120.798Z" fill="#363636"/>
<path d="M29.9707 62.2877C29.9707 56.5019 34.661 51.8115 40.4469 51.8115H82.6105C88.3963 51.8115 93.0866 56.5019 93.0866 62.2877V117.028C93.0866 119.921 90.7415 122.267 87.8486 122.267H40.4468C34.661 122.267 29.9707 117.576 29.9707 111.79V62.2877Z" fill="#5C5C5C"/>
<rect x="41.2832" y="66.5054" width="41.2159" height="10.0352" rx="2.86719" fill="#9C9C9C"/>
</g>
<defs>
<clipPath id="clip0_782_6659">
<rect x="0.767578" width="122.464" height="188.406" rx="3.76812" fill="white"/>
</clipPath>
</defs>
</svg>
