<svg width="155" height="174" viewBox="0 0 155 174" fill="none" xmlns="http://www.w3.org/2000/svg">
<path d="M0 21.4118C0 9.58636 9.58637 0 21.4118 0H107.588C119.414 0 129 9.58637 129 21.4118V152.59C129 164.414 119.414 174 107.59 174H60C26.8629 174 0 147.137 0 114V21.4118Z" fill="#5191FB"/>
<path d="M0 75H81C87.6274 75 93 80.3726 93 87V174H60C26.8629 174 0 147.137 0 114V75Z" fill="#E8E8E8"/>
<rect y="98" width="15" height="19" fill="#E8E8E8"/>
<rect x="58" y="136" width="9" height="38" fill="#E8E8E8"/>
<path d="M0 21.4118C0 9.58638 9.58637 0 21.4118 0H90.5882C102.414 0 112 9.58637 112 21.4118V110.59C112 122.414 102.414 132 90.59 132H21C9.40202 132 0 122.598 0 111V21.4118Z" fill="#5191FB"/>
<path d="M42 125.412C42 113.586 51.5864 104 63.4118 104H107.588C119.414 104 129 113.586 129 125.412V152.59C129 164.414 119.414 174 107.59 174H61C50.5066 174 42 165.493 42 155V125.412Z" fill="#5191FB"/>
<circle cx="116" cy="135" r="39" fill="#C1CCDB"/>
<ellipse cx="114" cy="132.5" rx="37" ry="36.5" fill="#E8E8E8"/>
<circle cx="99.0069" cy="125.29" r="3.34559" fill="#363636" stroke="#363636" stroke-width="1.33824"/>
<circle cx="111.054" cy="125.29" r="3.34559" fill="#363636" stroke="#363636" stroke-width="1.33824"/>
<rect x="119" y="139.193" width="10" height="19" rx="5" fill="#363636"/>
<path fill-rule="evenodd" clip-rule="evenodd" d="M114.324 107.543C114.026 107.543 113.744 107.425 113.496 107.26C113.024 106.944 112.498 106.775 111.986 106.775C111.475 106.775 110.949 106.944 110.477 107.26C110.229 107.425 109.947 107.543 109.649 107.543C108.729 107.543 108.181 106.56 108.878 105.96C109.741 105.217 110.818 104.775 111.986 104.775C113.155 104.775 114.232 105.217 115.095 105.96C115.792 106.56 115.244 107.543 114.324 107.543Z" fill="#363636"/>
<path fill-rule="evenodd" clip-rule="evenodd" d="M101.762 107.543C101.463 107.543 101.181 107.425 100.933 107.26C100.462 106.944 99.9357 106.775 99.424 106.775C98.9123 106.775 98.3864 106.944 97.9148 107.26C97.6669 107.425 97.3846 107.543 97.0864 107.543C96.1668 107.543 95.6182 106.56 96.3152 105.96C97.1785 105.217 98.2557 104.775 99.424 104.775C100.592 104.775 101.669 105.217 102.533 105.96C103.23 106.56 102.681 107.543 101.762 107.543Z" fill="#363636"/>
<rect x="18" y="20" width="67" height="6" rx="2" fill="#E8E8E8"/>
<rect x="18" y="33" width="44" height="6" rx="2" fill="#E8E8E8"/>
<rect x="18" y="46" width="80" height="6" rx="2" fill="#E8E8E8"/>
<rect x="18" y="59" width="98" height="6" rx="2" fill="#E8E8E8"/>
<path d="M31 123H47C49.7614 123 52 125.239 52 128V142H31V123Z" fill="#5191FB"/>
<path d="M21 132H32C37.5228 132 42 136.477 42 142V151H21V132Z" fill="#E8E8E8"/>
</svg>
