<svg width="36" height="36" viewBox="0 0 36 36" fill="none" xmlns="http://www.w3.org/2000/svg">
<mask id="path-1-inside-1_1022_20778" fill="white">
<path d="M36 18C36 13.9591 34.6403 10.0357 32.1397 6.86138C29.6391 3.68707 26.1432 1.44651 22.2146 0.500358C18.286 -0.445795 14.1533 -0.0424977 10.4817 1.64533C6.81014 3.33316 3.81332 6.20733 1.97361 9.80519C0.13391 13.4031 -0.441642 17.5153 0.339601 21.48C1.12084 25.4447 3.21343 29.0312 6.28053 31.6621C9.34763 34.2931 13.2108 35.8155 17.2482 35.9843C21.2856 36.1531 25.2624 34.9584 28.5383 32.5926L18 18H36Z"/>
</mask>
<path d="M36 18C36 13.9591 34.6403 10.0357 32.1397 6.86138C29.6391 3.68707 26.1432 1.44651 22.2146 0.500358C18.286 -0.445795 14.1533 -0.0424977 10.4817 1.64533C6.81014 3.33316 3.81332 6.20733 1.97361 9.80519C0.13391 13.4031 -0.441642 17.5153 0.339601 21.48C1.12084 25.4447 3.21343 29.0312 6.28053 31.6621C9.34763 34.2931 13.2108 35.8155 17.2482 35.9843C21.2856 36.1531 25.2624 34.9584 28.5383 32.5926L18 18H36Z" stroke="#E8E8E8" stroke-width="10" mask="url(#path-1-inside-1_1022_20778)"/>
<circle cx="17.9994" cy="18.0012" r="13.7143" fill="#292929"/>
</svg>
