<svg width="32" height="32" viewBox="0 0 32 32" fill="none" xmlns="http://www.w3.org/2000/svg">
<path d="M20.3469 13.3333C19.6893 13.3333 19.1091 12.9032 18.918 12.274L17.4287 7.37075C16.9996 5.95833 14.9999 5.95833 14.5709 7.37074L13.0816 12.274C12.8904 12.9032 12.3103 13.3333 11.6527 13.3333H7.33004C5.87691 13.3333 5.27977 15.1981 6.46261 16.0422L10.0283 18.5866C10.5525 18.9607 10.7778 19.6287 10.5874 20.2439L9.15056 24.8845C8.72096 26.272 10.3244 27.394 11.4808 26.515L15.0968 23.7663C15.6306 23.3606 16.3692 23.3603 16.9033 23.7656L20.5349 26.5217C21.6915 27.3994 23.2936 26.2774 22.8642 24.8904L21.4253 20.2431C21.2349 19.6283 21.4599 18.9607 21.9835 18.5865L25.544 16.0416C26.7258 15.1969 26.1282 13.3333 24.6757 13.3333H20.3469Z" fill="#6D6D6D"/>
</svg>
