<svg width="20" height="20" viewBox="0 0 20 20" fill="none" xmlns="http://www.w3.org/2000/svg">
<path d="M12.7168 8.33329C12.3058 8.33329 11.9432 8.06446 11.8237 7.67122L10.8929 4.60669C10.6247 3.72393 9.37493 3.72393 9.10679 4.60669L8.17594 7.67122C8.05649 8.06446 7.69388 8.33329 7.2829 8.33329H4.58124C3.67304 8.33329 3.29983 9.49882 4.0391 10.0264L6.26764 11.6166C6.59527 11.8504 6.73612 12.2679 6.61707 12.6524L5.71907 15.5528C5.45057 16.42 6.45272 17.1212 7.17545 16.5719L9.43549 14.8539C9.76907 14.6004 10.2307 14.6002 10.5645 14.8535L12.8343 16.576C13.5571 17.1246 14.5585 16.4233 14.2901 15.5565L13.3908 12.6519C13.2718 12.2676 13.4124 11.8504 13.7396 11.6165L15.965 10.0259C16.7036 9.49805 16.3301 8.33329 15.4223 8.33329H12.7168Z" fill="#FFC700"/>
</svg>
