<svg width="32" height="32" viewBox="0 0 32 32" fill="none" xmlns="http://www.w3.org/2000/svg">
<path d="M25.3334 2.66669H6.66675C5.60588 2.66669 4.58847 3.08811 3.83832 3.83826C3.08818 4.58841 2.66675 5.60582 2.66675 6.66669V8.22669C2.66656 8.77728 2.78004 9.32198 3.00008 9.82669V9.90669C3.18845 10.3346 3.45527 10.7236 3.78675 11.0534L12.0001 19.2134V28C11.9996 28.2266 12.0569 28.4496 12.1666 28.6479C12.2762 28.8462 12.4346 29.0133 12.6267 29.1334C12.8389 29.2649 13.0838 29.3342 13.3334 29.3334C13.5421 29.3321 13.7477 29.2819 13.9334 29.1867L19.2667 26.52C19.4866 26.4092 19.6715 26.2397 19.801 26.0302C19.9304 25.8208 19.9993 25.5796 20.0001 25.3334V19.2134L28.1601 11.0534C28.4916 10.7236 28.7584 10.3346 28.9467 9.90669V9.82669C29.1852 9.32593 29.3168 8.78106 29.3334 8.22669V6.66669C29.3334 5.60582 28.912 4.58841 28.1618 3.83826C27.4117 3.08811 26.3943 2.66669 25.3334 2.66669ZM17.7201 17.72C17.5965 17.8446 17.4987 17.9924 17.4324 18.1548C17.366 18.3173 17.3324 18.4912 17.3334 18.6667V24.5067L14.6667 25.84V18.6667C14.6678 18.4912 14.6341 18.3173 14.5678 18.1548C14.5014 17.9924 14.4037 17.8446 14.2801 17.72L7.21342 10.6667H24.7867L17.7201 17.72ZM26.6667 8.00002H5.33342V6.66669C5.33342 6.31307 5.47389 5.97393 5.72394 5.72388C5.97399 5.47383 6.31313 5.33335 6.66675 5.33335H25.3334C25.687 5.33335 26.0262 5.47383 26.2762 5.72388C26.5263 5.97393 26.6667 6.31307 26.6667 6.66669V8.00002Z" fill="#E8E8E8"/>
</svg>
