<svg width="32" height="32" viewBox="0 0 32 32" fill="none" xmlns="http://www.w3.org/2000/svg">
<path d="M28.0932 22.44L25.3332 19.6133C24.7396 19.049 23.9907 18.6751 23.1829 18.5396C22.375 18.4042 21.5452 18.5135 20.7999 18.8533L19.5999 17.6533C21.014 15.7639 21.6598 13.4089 21.4073 11.0624C21.1548 8.71598 20.0228 6.55228 18.2391 5.00692C16.4555 3.46155 14.1526 2.64926 11.7941 2.73356C9.43563 2.81787 7.19664 3.7925 5.52786 5.46128C3.85909 7.13005 2.88445 9.36904 2.80015 11.7275C2.71585 14.086 3.52814 16.3889 5.07351 18.1726C6.61887 19.9562 8.78257 21.0882 11.129 21.3407C13.4755 21.5932 15.8305 20.9474 17.7199 19.5333L18.9066 20.72C18.5267 21.4662 18.3905 22.3127 18.5173 23.1404C18.6441 23.9681 19.0274 24.7351 19.6132 25.3333L22.4399 28.16C23.1899 28.9091 24.2066 29.3298 25.2666 29.3298C26.3266 29.3298 27.3432 28.9091 28.0932 28.16C28.4742 27.7875 28.7769 27.3426 28.9836 26.8514C29.1903 26.3603 29.2967 25.8328 29.2967 25.3C29.2967 24.7671 29.1903 24.2397 28.9836 23.7485C28.7769 23.2574 28.4742 22.8125 28.0932 22.44ZM16.7866 16.7867C15.8536 17.7173 14.6656 18.3506 13.3729 18.6064C12.0801 18.8623 10.7406 18.7293 9.52337 18.2242C8.30618 17.7192 7.26599 16.8647 6.53419 15.7687C5.80239 14.6727 5.41182 13.3845 5.41182 12.0667C5.41182 10.7488 5.80239 9.46056 6.53419 8.3646C7.26599 7.26864 8.30618 6.41415 9.52337 5.90907C10.7406 5.40399 12.0801 5.27098 13.3729 5.52685C14.6656 5.78272 15.8536 6.41599 16.7866 7.34665C17.4074 7.96593 17.9 8.7016 18.2361 9.51153C18.5722 10.3215 18.7452 11.1898 18.7452 12.0667C18.7452 12.9435 18.5722 13.8118 18.2361 14.6218C17.9 15.4317 17.4074 16.1674 16.7866 16.7867ZM26.2132 26.2133C26.0893 26.3383 25.9418 26.4375 25.7793 26.5052C25.6169 26.5729 25.4426 26.6077 25.2666 26.6077C25.0906 26.6077 24.9163 26.5729 24.7538 26.5052C24.5913 26.4375 24.4439 26.3383 24.3199 26.2133L21.4932 23.3867C21.3683 23.2627 21.2691 23.1152 21.2014 22.9528C21.1337 22.7903 21.0988 22.616 21.0988 22.44C21.0988 22.264 21.1337 22.0897 21.2014 21.9272C21.2691 21.7647 21.3683 21.6173 21.4932 21.4933C21.6172 21.3683 21.7647 21.2692 21.9271 21.2015C22.0896 21.1338 22.2639 21.0989 22.4399 21.0989C22.6159 21.0989 22.7902 21.1338 22.9527 21.2015C23.1152 21.2692 23.2626 21.3683 23.3866 21.4933L26.2132 24.32C26.3382 24.4439 26.4374 24.5914 26.5051 24.7539C26.5728 24.9164 26.6076 25.0906 26.6076 25.2667C26.6076 25.4427 26.5728 25.6169 26.5051 25.7794C26.4374 25.9419 26.3382 26.0894 26.2132 26.2133Z" fill="#E8E8E8"/>
</svg>
