<svg width="32" height="32" viewBox="0 0 32 32" fill="none" xmlns="http://www.w3.org/2000/svg">
<path d="M23.6134 15.0533C23.4895 14.9284 23.342 14.8292 23.1795 14.7615C23.017 14.6938 22.8428 14.6589 22.6668 14.6589C22.4907 14.6589 22.3165 14.6938 22.154 14.7615C21.9915 14.8292 21.844 14.9284 21.7201 15.0533L17.3334 19.4533V9.33333C17.3334 8.97971 17.1929 8.64057 16.9429 8.39052C16.6928 8.14048 16.3537 8 16.0001 8C15.6465 8 15.3073 8.14048 15.0573 8.39052C14.8072 8.64057 14.6668 8.97971 14.6668 9.33333V19.4533L10.2801 15.0533C10.029 14.8023 9.68849 14.6612 9.33342 14.6612C8.97835 14.6612 8.63782 14.8023 8.38675 15.0533C8.13568 15.3044 7.99463 15.6449 7.99463 16C7.99463 16.3551 8.13568 16.6956 8.38675 16.9467L15.0534 23.6133C15.1802 23.7347 15.3298 23.8299 15.4934 23.8933C15.653 23.9639 15.8256 24.0003 16.0001 24.0003C16.1746 24.0003 16.3472 23.9639 16.5068 23.8933C16.6704 23.8299 16.8199 23.7347 16.9468 23.6133L23.6134 16.9467C23.7384 16.8227 23.8376 16.6752 23.9053 16.5128C23.973 16.3503 24.0078 16.176 24.0078 16C24.0078 15.824 23.973 15.6497 23.9053 15.4872C23.8376 15.3248 23.7384 15.1773 23.6134 15.0533Z" fill="#E8E8E8"/>
</svg>
