<svg width="32" height="32" viewBox="0 0 32 32" fill="none" xmlns="http://www.w3.org/2000/svg">
<path d="M17.3334 14.6667H9.33342C8.97979 14.6667 8.64065 14.8072 8.39061 15.0572C8.14056 15.3073 8.00008 15.6464 8.00008 16C8.00008 16.3536 8.14056 16.6928 8.39061 16.9428C8.64065 17.1929 8.97979 17.3334 9.33342 17.3334H17.3334C17.687 17.3334 18.0262 17.1929 18.2762 16.9428C18.5263 16.6928 18.6667 16.3536 18.6667 16C18.6667 15.6464 18.5263 15.3073 18.2762 15.0572C18.0262 14.8072 17.687 14.6667 17.3334 14.6667ZM22.6667 9.33335H9.33342C8.97979 9.33335 8.64065 9.47383 8.39061 9.72388C8.14056 9.97393 8.00008 10.3131 8.00008 10.6667C8.00008 11.0203 8.14056 11.3594 8.39061 11.6095C8.64065 11.8595 8.97979 12 9.33342 12H22.6667C23.0204 12 23.3595 11.8595 23.6096 11.6095C23.8596 11.3594 24.0001 11.0203 24.0001 10.6667C24.0001 10.3131 23.8596 9.97393 23.6096 9.72388C23.3595 9.47383 23.0204 9.33335 22.6667 9.33335ZM25.3334 2.66669H6.66675C5.60588 2.66669 4.58847 3.08811 3.83832 3.83826C3.08818 4.58841 2.66675 5.60582 2.66675 6.66669V20C2.66675 21.0609 3.08818 22.0783 3.83832 22.8284C4.58847 23.5786 5.60588 24 6.66675 24H22.1201L27.0534 28.9467C27.178 29.0703 27.3258 29.168 27.4882 29.2344C27.6507 29.3007 27.8246 29.3344 28.0001 29.3334C28.175 29.3379 28.3485 29.3013 28.5067 29.2267C28.7502 29.1267 28.9587 28.9568 29.1058 28.7385C29.2529 28.5202 29.3321 28.2633 29.3334 28V6.66669C29.3334 5.60582 28.912 4.58841 28.1618 3.83826C27.4117 3.08811 26.3943 2.66669 25.3334 2.66669ZM26.6667 24.7867L23.6134 21.72C23.4888 21.5964 23.3411 21.4987 23.1786 21.4323C23.0162 21.366 22.8422 21.3323 22.6667 21.3334H6.66675C6.31313 21.3334 5.97399 21.1929 5.72394 20.9428C5.47389 20.6928 5.33341 20.3536 5.33341 20V6.66669C5.33341 6.31307 5.47389 5.97393 5.72394 5.72388C5.97399 5.47383 6.31313 5.33335 6.66675 5.33335H25.3334C25.687 5.33335 26.0262 5.47383 26.2762 5.72388C26.5263 5.97393 26.6667 6.31307 26.6667 6.66669V24.7867Z" fill="#E8E8E8"/>
</svg>
