<svg width="32" height="32" viewBox="0 0 32 32" fill="none" xmlns="http://www.w3.org/2000/svg">
<path d="M26.88 6.66668C25.4666 5.24963 23.593 4.38474 21.5977 4.22824C19.6025 4.07175 17.617 4.63397 16 5.81335C14.3035 4.55153 12.192 3.97937 10.0905 4.21207C7.98909 4.44477 6.05388 5.46505 4.67459 7.06746C3.2953 8.66987 2.57439 10.7354 2.65703 12.848C2.73967 14.9607 3.61972 16.9636 5.11996 18.4534L13.4 26.7467C14.0933 27.4291 15.0271 27.8115 16 27.8115C16.9728 27.8115 17.9066 27.4291 18.6 26.7467L26.88 18.4534C28.4367 16.887 29.3105 14.7684 29.3105 12.56C29.3105 10.3517 28.4367 8.23299 26.88 6.66668V6.66668ZM25 16.6134L16.72 24.8934C16.6257 24.9885 16.5136 25.064 16.39 25.1156C16.2664 25.1671 16.1339 25.1936 16 25.1936C15.8661 25.1936 15.7335 25.1671 15.6099 25.1156C15.4863 25.064 15.3742 24.9885 15.28 24.8934L6.99996 16.5734C5.9543 15.5045 5.36877 14.0686 5.36877 12.5734C5.36877 11.0781 5.9543 9.64222 6.99996 8.57335C8.0655 7.52133 9.50259 6.93144 11 6.93144C12.4973 6.93144 13.9344 7.52133 15 8.57335C15.1239 8.69832 15.2714 8.79751 15.4339 8.86521C15.5963 8.9329 15.7706 8.96775 15.9466 8.96775C16.1226 8.96775 16.2969 8.9329 16.4594 8.86521C16.6219 8.79751 16.7693 8.69832 16.8933 8.57335C17.9588 7.52133 19.3959 6.93144 20.8933 6.93144C22.3907 6.93144 23.8278 7.52133 24.8933 8.57335C25.9533 9.62822 26.5581 11.0563 26.578 12.5516C26.598 14.0469 26.0315 15.4906 25 16.5734V16.6134Z" fill="#E8E8E8"/>
</svg>
