<svg width="32" height="32" viewBox="0 0 32 32" fill="none" xmlns="http://www.w3.org/2000/svg">
<path d="M24 18.6667C23.2122 18.6719 22.4354 18.8515 21.7253 19.1927C21.0152 19.5339 20.3896 20.0282 19.8933 20.64L13.0933 17.5067C13.413 16.5277 13.413 15.4723 13.0933 14.4933L19.8933 11.36C20.6954 12.3279 21.8137 12.9814 23.0508 13.2051C24.2879 13.4288 25.5642 13.2083 26.6546 12.5825C27.7449 11.9568 28.5791 10.966 29.01 9.78498C29.4409 8.604 29.4408 7.30877 29.0097 6.12787C28.5786 4.94697 27.7442 3.95631 26.6537 3.33075C25.5633 2.70518 24.2869 2.48491 23.0499 2.70882C21.8128 2.93273 20.6947 3.58642 19.8927 4.55452C19.0907 5.52262 18.6565 6.74289 18.6666 7.99999C18.6706 8.31763 18.7019 8.63435 18.76 8.94666L11.72 12.1867C10.9694 11.4528 10.0189 10.9567 8.9877 10.7606C7.95644 10.5644 6.89025 10.677 5.92269 11.0842C4.95513 11.4913 4.12924 12.1749 3.54849 13.0494C2.96774 13.9239 2.65796 14.9503 2.65796 16C2.65796 17.0497 2.96774 18.0761 3.54849 18.9506C4.12924 19.825 4.95513 20.5087 5.92269 20.9158C6.89025 21.323 7.95644 21.4355 8.9877 21.2394C10.0189 21.0433 10.9694 20.5472 11.72 19.8133L18.76 23.0533C18.7019 23.3656 18.6706 23.6823 18.6666 24C18.6666 25.0548 18.9794 26.086 19.5655 26.963C20.1515 27.8401 20.9844 28.5237 21.959 28.9273C22.9335 29.331 24.0059 29.4366 25.0404 29.2308C26.075 29.0251 27.0253 28.5171 27.7712 27.7712C28.5171 27.0253 29.025 26.075 29.2308 25.0405C29.4366 24.0059 29.331 22.9336 28.9273 21.959C28.5236 20.9845 27.8401 20.1515 26.963 19.5655C26.0859 18.9795 25.0548 18.6667 24 18.6667ZM24 5.33332C24.5274 5.33332 25.0429 5.48972 25.4815 5.78274C25.92 6.07576 26.2618 6.49223 26.4636 6.9795C26.6655 7.46677 26.7183 8.00295 26.6154 8.52023C26.5125 9.03751 26.2585 9.51267 25.8856 9.88561C25.5126 10.2585 25.0375 10.5125 24.5202 10.6154C24.0029 10.7183 23.4667 10.6655 22.9795 10.4637C22.4922 10.2618 22.0757 9.92004 21.7827 9.48151C21.4897 9.04298 21.3333 8.52741 21.3333 7.99999C21.3333 7.29275 21.6142 6.61447 22.1143 6.11437C22.6144 5.61427 23.2927 5.33332 24 5.33332ZM7.99996 18.6667C7.47254 18.6667 6.95697 18.5103 6.51844 18.2172C6.0799 17.9242 5.73811 17.5077 5.53628 17.0205C5.33444 16.5332 5.28163 15.997 5.38453 15.4797C5.48742 14.9625 5.7414 14.4873 6.11434 14.1144C6.48728 13.7414 6.96243 13.4875 7.47972 13.3846C7.997 13.2817 8.53318 13.3345 9.02045 13.5363C9.50772 13.7381 9.92419 14.0799 10.2172 14.5185C10.5102 14.957 10.6666 15.4726 10.6666 16C10.6666 16.7072 10.3857 17.3855 9.88557 17.8856C9.38548 18.3857 8.7072 18.6667 7.99996 18.6667ZM24 26.6667C23.4725 26.6667 22.957 26.5103 22.5184 26.2172C22.0799 25.9242 21.7381 25.5077 21.5363 25.0205C21.3344 24.5332 21.2816 23.997 21.3845 23.4797C21.4874 22.9625 21.7414 22.4873 22.1143 22.1144C22.4873 21.7414 22.9624 21.4875 23.4797 21.3846C23.997 21.2817 24.5332 21.3345 25.0204 21.5363C25.5077 21.7381 25.9242 22.0799 26.2172 22.5185C26.5102 22.957 26.6666 23.4726 26.6666 24C26.6666 24.7072 26.3857 25.3855 25.8856 25.8856C25.3855 26.3857 24.7072 26.6667 24 26.6667Z" fill="#E8E8E8"/>
</svg>
