<svg width="32" height="32" viewBox="0 0 32 32" fill="none" xmlns="http://www.w3.org/2000/svg">
<path d="M29.3334 9.65331C29.3345 9.47784 29.3008 9.30389 29.2345 9.14144C29.1681 8.97899 29.0703 8.83124 28.9468 8.70665L23.2934 3.05331C23.1688 2.92974 23.0211 2.83197 22.8586 2.76562C22.6962 2.69927 22.5222 2.66563 22.3468 2.66665C22.1713 2.66563 21.9973 2.69927 21.8349 2.76562C21.6724 2.83197 21.5247 2.92974 21.4001 3.05331L17.6268 6.82665L3.05344 21.4C2.92986 21.5246 2.83209 21.6723 2.76574 21.8348C2.69939 21.9972 2.66576 22.1712 2.66677 22.3466V28C2.66677 28.3536 2.80725 28.6927 3.05729 28.9428C3.30734 29.1928 3.64648 29.3333 4.0001 29.3333H9.65344C9.84001 29.3435 10.0266 29.3143 10.2012 29.2477C10.3758 29.1811 10.5344 29.0785 10.6668 28.9466L25.1601 14.3733L28.9468 10.6666C29.0685 10.5374 29.1676 10.3887 29.2401 10.2266C29.253 10.1204 29.253 10.0129 29.2401 9.90665C29.2463 9.84458 29.2463 9.78205 29.2401 9.71998L29.3334 9.65331ZM9.10677 26.6666H5.33344V22.8933L18.5734 9.65331L22.3468 13.4266L9.10677 26.6666ZM24.2268 11.5466L20.4534 7.77331L22.3468 5.89332L26.1068 9.65331L24.2268 11.5466Z" fill="#E8E8E8"/>
</svg>
