<svg width="12" height="12" viewBox="0 0 12 12" fill="none" xmlns="http://www.w3.org/2000/svg">
<g clip-path="url(#clip0_361_338)">
<path d="M5.61159 9.64526L5.61087 9.64461C4.31331 8.46798 3.27692 7.52691 2.5589 6.64906C1.84662 5.77824 1.5 5.03076 1.5 4.25C1.5 2.98614 2.48614 2 3.75 2C4.46861 2 5.16612 2.33697 5.61932 2.86917L6 3.3162L6.38068 2.86917C6.83388 2.33697 7.53139 2 8.25 2C9.51386 2 10.5 2.98614 10.5 4.25C10.5 5.03077 10.1534 5.77827 9.44099 6.64982C8.72296 7.52829 7.6867 8.47046 6.38928 9.64947C6.3891 9.64964 6.38892 9.6498 6.38873 9.64997L6.00128 10L5.61159 9.64526Z" fill="#FF7D7D" stroke="#FF7D7D"/>
</g>
<defs>
<clipPath id="clip0_361_338">
<rect width="12" height="12" fill="white"/>
</clipPath>
</defs>
</svg>
