<svg width="32" height="32" viewBox="0 0 32 32" fill="none" xmlns="http://www.w3.org/2000/svg">
<path d="M23.8933 15.4934C23.8299 15.3297 23.7347 15.1802 23.6133 15.0534L16.9467 8.38669C16.8223 8.26237 16.6748 8.16376 16.5123 8.09648C16.3499 8.0292 16.1758 7.99457 16 7.99457C15.6449 7.99457 15.3044 8.13562 15.0533 8.38669C14.929 8.51101 14.8304 8.6586 14.7631 8.82102C14.6958 8.98345 14.6612 9.15754 14.6612 9.33336C14.6612 9.68843 14.8023 10.029 15.0533 10.28L19.4533 14.6667H9.33333C8.97971 14.6667 8.64057 14.8072 8.39052 15.0572C8.14048 15.3073 8 15.6464 8 16C8 16.3536 8.14048 16.6928 8.39052 16.9428C8.64057 17.1929 8.97971 17.3334 9.33333 17.3334H19.4533L15.0533 21.72C14.9284 21.844 14.8292 21.9914 14.7615 22.1539C14.6938 22.3164 14.6589 22.4907 14.6589 22.6667C14.6589 22.8427 14.6938 23.017 14.7615 23.1795C14.8292 23.3419 14.9284 23.4894 15.0533 23.6134C15.1773 23.7383 15.3248 23.8375 15.4872 23.9052C15.6497 23.9729 15.824 24.0078 16 24.0078C16.176 24.0078 16.3503 23.9729 16.5128 23.9052C16.6752 23.8375 16.8227 23.7383 16.9467 23.6134L23.6133 16.9467C23.7347 16.8199 23.8299 16.6704 23.8933 16.5067C24.0267 16.1821 24.0267 15.818 23.8933 15.4934Z" fill="#E8E8E8"/>
</svg>
