<svg width="32" height="32" viewBox="0 0 32 32" fill="none" xmlns="http://www.w3.org/2000/svg">
<path d="M12.0001 14.6667C12.2638 14.6667 12.5216 14.5885 12.7408 14.442C12.9601 14.2955 13.131 14.0872 13.2319 13.8436C13.3328 13.6 13.3592 13.3319 13.3078 13.0732C13.2564 12.8146 13.1294 12.577 12.9429 12.3905C12.7564 12.2041 12.5188 12.0771 12.2602 12.0256C12.0016 11.9742 11.7335 12.0006 11.4898 12.1015C11.2462 12.2024 11.038 12.3733 10.8915 12.5926C10.745 12.8119 10.6668 13.0696 10.6668 13.3334C10.6668 13.687 10.8072 14.0261 11.0573 14.2762C11.3073 14.5262 11.6465 14.6667 12.0001 14.6667ZM16.0001 2.66669C13.363 2.66669 10.7851 3.44867 8.59248 4.91376C6.39983 6.37884 4.69086 8.46123 3.68169 10.8976C2.67253 13.3339 2.40848 16.0148 2.92295 18.6012C3.43742 21.1876 4.7073 23.5634 6.572 25.4281C8.4367 27.2928 10.8125 28.5627 13.3989 29.0772C15.9853 29.5916 18.6662 29.3276 21.1025 28.3184C23.5389 27.3092 25.6213 25.6003 27.0863 23.4076C28.5514 21.215 29.3334 18.6371 29.3334 16C29.3334 14.2491 28.9885 12.5152 28.3185 10.8976C27.6484 9.2799 26.6663 7.81004 25.4282 6.57193C24.1901 5.33382 22.7202 4.35169 21.1025 3.68163C19.4849 3.01156 17.751 2.66669 16.0001 2.66669ZM16.0001 26.6667C13.8904 26.6667 11.8281 26.0411 10.074 24.869C8.31988 23.697 6.95271 22.0311 6.14537 20.082C5.33804 18.1329 5.1268 15.9882 5.53838 13.9191C5.94995 11.8499 6.96586 9.94931 8.45761 8.45755C9.94938 6.96579 11.85 5.94989 13.9191 5.53831C15.9883 5.12674 18.133 5.33797 20.082 6.14531C22.0311 6.95264 23.697 8.31981 24.8691 10.0739C26.0412 11.8281 26.6668 13.8904 26.6668 16C26.6668 18.829 25.5429 21.5421 23.5426 23.5425C21.5422 25.5429 18.8291 26.6667 16.0001 26.6667ZM20.0001 17.3334H12.0001C11.6465 17.3334 11.3073 17.4738 11.0573 17.7239C10.8072 17.9739 10.6668 18.3131 10.6668 18.6667C10.6668 20.0812 11.2287 21.4377 12.2289 22.4379C13.229 23.4381 14.5856 24 16.0001 24C17.4146 24 18.7711 23.4381 19.7713 22.4379C20.7715 21.4377 21.3334 20.0812 21.3334 18.6667C21.3334 18.3131 21.1929 17.9739 20.9429 17.7239C20.6928 17.4738 20.3537 17.3334 20.0001 17.3334ZM16.0001 21.3334C15.5325 21.3329 15.0732 21.2094 14.6683 20.9754C14.2634 20.7414 13.9272 20.405 13.6934 20H18.3068C18.0729 20.405 17.7367 20.7414 17.3319 20.9754C16.927 21.2094 16.4677 21.3329 16.0001 21.3334ZM20.0001 12C19.7364 12 19.4786 12.0782 19.2593 12.2247C19.0401 12.3712 18.8692 12.5795 18.7682 12.8231C18.6673 13.0667 18.6409 13.3348 18.6924 13.5935C18.7438 13.8521 18.8708 14.0897 19.0573 14.2762C19.2437 14.4626 19.4813 14.5896 19.74 14.6411C19.9986 14.6925 20.2667 14.6661 20.5103 14.5652C20.754 14.4643 20.9622 14.2934 21.1087 14.0741C21.2552 13.8548 21.3334 13.5971 21.3334 13.3334C21.3334 12.9797 21.1929 12.6406 20.9429 12.3905C20.6928 12.1405 20.3537 12 20.0001 12Z" fill="#E8E8E8"/>
</svg>
